<?xml version="1.0" encoding="UTF-8"?>
<svg id="Layer_1" data-name="Layer 1" xmlns="http://www.w3.org/2000/svg" viewBox="0 0 250.67 282.34">
  <g>
    <path d="M227.24,274.74h-112.66c-.94,0-1.74-.68-1.9-1.61-.16-.93.38-1.83,1.27-2.14,33.03-11.56,64.99-17.11,100.4-17.43l-7.48-93.41c-.04-.54.14-1.07.5-1.46.36-.4.88-.62,1.42-.62h8.59c1,0,1.83.76,1.92,1.76l9.86,112.81c.05.54-.14,1.07-.5,1.47-.36.4-.88.62-1.42.62ZM126.58,270.89h98.56l-9.52-108.96h-4.74l7.48,93.4c.04.54-.14,1.07-.5,1.46-.37.39-.88.62-1.41.62-31.71.1-60.57,4.41-89.86,13.48Z" style="fill: #b92b27; stroke-width: 0px;"/>
    <path d="M114.64,274.74s-.04,0-.05,0H1.93c-.54,0-1.06-.23-1.42-.62-.37-.4-.55-.93-.5-1.47l9.86-112.81c.09-1,.92-1.76,1.92-1.76h8.59c.54,0,1.05.22,1.42.62.37.4.55.92.51,1.46l-7.48,93.41c35.34.31,67.24,5.85,100.2,17.36.88.18,1.55.96,1.55,1.89,0,1.06-.86,1.93-1.93,1.93ZM4.03,270.89h98.55c-29.3-9.07-58.15-13.38-89.86-13.48-.54,0-1.05-.23-1.41-.62-.36-.4-.55-.92-.5-1.46l7.48-93.4h-4.74l-9.52,108.96Z" style="fill: #b92b27; stroke-width: 0px;"/>
    <path d="M114.58,274.75c-.68,0-1.33-.36-1.68-.98-.46-.81-.27-1.84.45-2.43,24.03-19.89,52.24-29.55,86.23-29.55,1.17,0,2.34.01,3.53.03l-7-97.25c-.04-.52.14-1.04.49-1.42.35-.39.84-.62,1.36-.64,3.12-.12,6.3-.2,9.53-.23h.02c1,0,1.84.77,1.92,1.77l8.92,111.3c.04.54-.14,1.07-.5,1.46-.37.39-.88.62-1.41.62-35.8.11-67.96,5.59-101.22,17.22-.21.07-.42.11-.64.11ZM199.58,245.63c-28.79,0-53.29,7.11-74.53,21.69,29.16-9.07,57.87-13.48,89.3-13.76l-8.61-107.43c-1.9.03-3.77.07-5.63.14l7,97.38c.04.54-.15,1.08-.53,1.47-.38.39-.89.62-1.45.6-1.87-.06-3.73-.08-5.55-.08Z" style="fill: #b92b27; stroke-width: 0px;"/>
    <path d="M114.58,274.75c-.21,0-.43-.04-.64-.11-33.26-11.64-65.43-17.11-101.22-17.22-.54,0-1.05-.23-1.41-.62-.36-.4-.55-.92-.5-1.46l8.92-111.3c.08-1,.92-1.77,1.92-1.77h.02c3.24.03,6.41.11,9.54.23.52.02,1.01.26,1.36.64.35.39.52.9.49,1.42l-7,97.25c1.19-.02,2.37-.03,3.53-.03,33.99,0,62.2,9.67,86.23,29.55.72.6.91,1.62.45,2.43-.35.62-1,.98-1.68.98ZM14.82,253.57c31.43.28,60.14,4.69,89.3,13.76-21.25-14.58-45.75-21.69-74.54-21.69-1.82,0-3.68.03-5.55.08-.54.03-1.07-.2-1.45-.6-.38-.39-.57-.93-.53-1.47l7.01-97.38c-1.86-.06-3.74-.11-5.63-.14l-8.61,107.43Z" style="fill: #b92b27; stroke-width: 0px;"/>
    <path d="M114.58,274.74c-.28,0-.56-.06-.82-.18-.68-.32-1.11-1-1.11-1.74v-112.82c0-.39.12-.77.34-1.09,14.69-21.37,42.03-30.25,84.4-27.32.96.07,1.72.83,1.79,1.79l7.9,109.82c.06.19.09.38.09.59,0,1.07-.83,1.93-1.96,1.93h-.09c-1.88-.06-3.72-.08-5.55-.08-33.05,0-60.46,9.38-83.77,28.67-.35.29-.79.44-1.23.44ZM116.51,160.6v108.19c23.34-18.18,50.56-27.02,83.07-27.02,1.17,0,2.34.01,3.53.03l-7.66-106.48c-39.67-2.47-65.2,5.76-78.95,25.28Z" style="fill: #b92b27; stroke-width: 0px;"/>
    <path d="M114.58,274.74c-.44,0-.88-.15-1.23-.44-23.32-19.29-50.72-28.67-83.77-28.67-1.82,0-3.67.03-5.55.08-.54.03-1.07-.2-1.45-.6-.38-.39-.57-.93-.53-1.47l7.93-110.28c.07-.96.83-1.72,1.79-1.79,42.36-2.94,69.71,5.95,84.4,27.32.22.32.34.7.34,1.09v112.82c0,.74-.43,1.42-1.11,1.74-.26.12-.54.18-.82.18ZM29.58,241.77c32.51,0,59.73,8.84,83.07,27.02v-108.19c-13.74-19.52-39.28-27.75-78.95-25.28l-7.66,106.48c1.19-.02,2.36-.03,3.53-.03Z" style="fill: #b92b27; stroke-width: 0px;"/>
    <path d="M114.58,282.34c-8.05,0-14.35-4.18-14.35-9.52,0-1.07.86-1.93,1.93-1.93h24.85c1.07,0,1.93.86,1.93,1.93,0,5.34-6.3,9.52-14.35,9.52ZM104.79,274.74c1.46,2.01,5.08,3.74,9.79,3.74s8.33-1.73,9.79-3.74h-19.58Z" style="fill: #b92b27; stroke-width: 0px;"/>
  </g>
  <polygon points="102.56 89.69 78.69 80.64 62.71 100.53 63.95 75.04 40.08 65.99 64.71 59.29 65.94 33.79 79.93 55.14 104.56 48.44 88.57 68.34 102.56 89.69" style="fill: #b92b27; stroke-width: 0px;"/>
  <polygon points="219.88 35.95 204.81 31.17 194.25 42.93 194.14 27.12 179.69 20.71 194.69 15.72 196.33 0 205.7 12.73 221.16 9.42 211.96 22.27 219.88 35.95" style="fill: #b92b27; stroke-width: 0px;"/>
  <polygon points="178.8 108.82 163.73 104.04 153.17 115.8 153.06 99.99 138.62 93.58 153.62 88.59 155.25 72.87 164.63 85.6 180.09 82.29 170.88 95.14 178.8 108.82" style="fill: #b92b27; stroke-width: 0px;"/>
  <circle cx="240.17" cy="78.69" r="10.5" style="fill: #b92b27; stroke-width: 0px;"/>
  <circle cx="139.17" cy="47.69" r="9" style="fill: #b92b27; stroke-width: 0px;"/>
</svg>