<?xml version="1.0" encoding="UTF-8"?>
<svg id="Layer_1" data-name="Layer 1" xmlns="http://www.w3.org/2000/svg" xmlns:xlink="http://www.w3.org/1999/xlink" viewBox="0 0 942.76 284.96">
  <defs>
    <linearGradient id="linear-gradient" x1="0" y1="142.48" x2="942.76" y2="142.48" gradientUnits="userSpaceOnUse">
      <stop offset="0" stop-color="#b92b27"/>
      <stop offset=".32" stop-color="#873c54"/>
      <stop offset=".99" stop-color="#1565c0"/>
    </linearGradient>
  </defs>
  <path d="M359.62,178.39c-3.9,7.6-7.5,13.2-10.8,16.8-3.3,3.6-6.25,5.4-8.85,5.4-2,0-3.43-1.05-4.27-3.15-.85-2.1-1.28-5.05-1.28-8.85,0-4.4.42-9.5,1.28-15.3.85-5.8,2-11.93,3.45-18.38,1.45-6.45,3.02-12.77,4.73-18.98,1.7-6.2,3.42-11.9,5.17-17.1,1.75-5.2,3.4-9.52,4.95-12.98,1.55-3.45,2.82-5.57,3.83-6.38-1.5-1.5-2.93-2.67-4.28-3.52-1.35-.85-2.58-1.27-3.67-1.27-1.9,0-4.3,1.4-7.2,4.2-3.1,2.9-6.97,7.18-11.62,12.82-4.65,5.65-9.65,12.1-15,19.35-5.35,7.25-10.58,14.73-15.67,22.42-1.9-.3-3.75-.55-5.55-.75-1.8-.2-3.55-.3-5.25-.3-3.8,0-7.08.58-9.82,1.73-2.75,1.15-4.67,3.18-5.78,6.07h5.25c1.9,0,4.15.05,6.75.15,2.6.1,5.75.3,9.45.6-4.2,6.6-8.02,12.98-11.48,19.12-3.45,6.15-6.2,11.62-8.25,16.43-2.05,4.8-3.07,8.6-3.07,11.4,0,1,.3,2.22.9,3.67.6,1.45,2,2.82,4.2,4.12,3.8-8.9,7.92-17.95,12.38-27.15,4.45-9.2,9.02-18.15,13.73-26.85,3.1.4,6.47.83,10.12,1.28,3.65.45,7.67,1.03,12.07,1.72-.8,4.1-1.42,8.05-1.88,11.85-.45,3.8-.67,7.3-.67,10.5,0,6.1.92,10.98,2.78,14.62,1.85,3.65,4.82,5.48,8.92,5.48,5,0,9.83-2.55,14.47-7.65,4.65-5.1,8.48-11.65,11.48-19.65l-1.5-1.5ZM327.07,159.49c-2.8-.7-5.88-1.47-9.23-2.32-3.35-.85-6.73-1.62-10.12-2.33,4.7-8.3,9.3-15.92,13.8-22.88,4.5-6.95,8.78-12.85,12.83-17.7,4.05-4.85,7.62-8.22,10.73-10.12-2,4.6-4.12,9.95-6.38,16.05-2.25,6.1-4.38,12.52-6.38,19.27-2,6.75-3.75,13.43-5.25,20.02ZM535.12,178.24c-2.1,5.5-4.9,10.3-8.4,14.4-3.5,4.1-7.28,7.25-11.33,9.45-4.05,2.2-8.08,3.3-12.08,3.3-4.3,0-7.2-1.3-8.7-3.9-1.5-2.6-2.25-5.45-2.25-8.55,0-3.7.77-7.65,2.33-11.85,1.55-4.2,3.55-8.2,6-12,2.45-3.8,5.1-6.9,7.95-9.3,2.85-2.4,5.62-3.6,8.33-3.6,1.3,0,2.17.33,2.62.98.45.65.67,1.57.67,2.77,0,2.2-.55,4.53-1.65,6.98-1.1,2.45-2.4,4.08-3.9,4.88,1.2,1.5,2.65,2.25,4.35,2.25,2.3,0,4.12-1.1,5.47-3.3,1.35-2.2,2.03-4.75,2.03-7.65,0-2.6-.75-5.1-2.25-7.5s-4.3-3.6-8.4-3.6c-3.8,0-7.65,1.12-11.55,3.38-3.9,2.25-7.45,5.28-10.65,9.08-3.2,3.8-5.78,8.08-7.73,12.83-.78,1.89-1.39,3.81-1.86,5.75-1.92,3.03-4.05,5.9-6.46,8.58-3.6,4-7.5,7.23-11.7,9.68-4.2,2.45-8.45,3.67-12.75,3.67-2.3,0-4.23-.35-5.77-1.05-1.55-.7-2.78-1.67-3.67-2.93-.9-1.25-1.53-2.62-1.88-4.12-.35-1.5-.53-3-.53-4.5,0-.8.05-1.65.15-2.55.1-.9.25-1.85.45-2.85,4.3-.4,8.62-1.42,12.98-3.08,4.35-1.65,8.35-3.77,12-6.38,3.65-2.6,6.6-5.57,8.85-8.92,2.25-3.35,3.38-6.92,3.38-10.73s-.97-6.15-2.92-7.35c-1.95-1.2-4.08-1.8-6.38-1.8-4.4,0-8.85,1.38-13.35,4.12-4.5,2.75-8.62,6.33-12.38,10.73-3.75,4.4-6.75,9.1-9,14.1-1.37,3.04-2.31,5.99-2.85,8.84-.58.96-1.18,1.91-1.8,2.86-2.35,3.6-4.78,6.58-7.28,8.93-2.5,2.35-5,3.52-7.5,3.52-1.3,0-2.38-.42-3.22-1.27-.85-.85-1.28-2.33-1.28-4.43,0-2.5.53-4.97,1.58-7.42,1.05-2.45,2.07-5,3.08-7.65,1-2.65,1.5-5.52,1.5-8.62,0-3.4-.88-6.5-2.62-9.3-1.75-2.8-4.58-4.2-8.48-4.2s-7.6,1.35-11.4,4.05c-3.8,2.7-7.38,6.08-10.73,10.12-3.35,4.05-6.38,8.13-9.08,12.23,1.4-4.1,2.55-8.02,3.45-11.77.9-3.75,1.35-6.42,1.35-8.03,0-2.6-1.35-3.9-4.05-3.9-1.4,0-2.75.35-4.05,1.05-1.3.7-2.25,1.4-2.85,2.1,0,3.3-.55,6.95-1.65,10.95-1.1,4-2.35,7.9-3.75,11.7-1.4,3.8-2.62,7-3.67,9.6-1.05,2.6-1.58,4.15-1.58,4.65.8,1.1,1.93,1.92,3.38,2.47,1.45.55,2.97.83,4.58.83,2-3.3,4.3-7.05,6.9-11.25,2.6-4.2,5.4-8.27,8.4-12.23,3-3.95,6.1-7.2,9.3-9.75,3.2-2.55,6.35-3.82,9.45-3.82,1.7,0,3.12.52,4.28,1.57,1.15,1.05,1.72,2.98,1.72,5.77,0,2.3-.35,4.68-1.05,7.12-.7,2.45-1.42,4.83-2.17,7.12-.75,2.3-1.12,4.5-1.12,6.6,0,2.8.87,5.1,2.62,6.9,1.75,1.8,4.37,2.7,7.88,2.7,3.8,0,7.25-1.1,10.35-3.3,3.1-2.2,5.95-5.2,8.55-9,.16-.24.32-.5.48-.74.15,4.57,1.66,8.44,4.54,11.62,3.05,3.35,7.62,5.02,13.73,5.02,5,0,9.92-1.23,14.77-3.67,4.85-2.45,9.35-5.87,13.5-10.27,1.73-1.84,3.33-3.83,4.82-5.95-.05.83-.09,1.66-.09,2.5,0,6.4,1.6,11.2,4.8,14.4,3.2,3.2,7.2,4.8,12,4.8s9.75-1.35,14.55-4.05c4.8-2.7,9.2-6.42,13.2-11.18,4-4.75,7.15-10.12,9.45-16.12l-1.95-1.5ZM447.22,173.29c2-3.6,4.25-6.9,6.75-9.9,2.5-3,5.1-5.42,7.8-7.28,2.7-1.85,5.25-2.77,7.65-2.77,1.3,0,2.15.3,2.55.9.4.6.6,1.45.6,2.55,0,3.2-1.03,6.25-3.08,9.15-2.05,2.9-4.65,5.55-7.8,7.95-3.15,2.4-6.43,4.48-9.83,6.22-3.4,1.75-6.45,3.08-9.15,3.98,1-3.6,2.5-7.2,4.5-10.8ZM556.12,187.24c-2.4,8.8-4.4,16.8-6,24,1.4.2,2.57.35,3.53.45.95.1,1.92.15,2.92.15,6.4,0,12.57-1.48,18.53-4.43,5.95-2.95,11.5-7,16.65-12.15s9.68-11.05,13.58-17.7c3.9-6.65,6.92-13.7,9.08-21.15,2.15-7.45,3.22-14.87,3.22-22.27,0-8.1-1.3-14.78-3.9-20.03-2.6-5.25-6.2-9.12-10.8-11.62-4.6-2.5-9.95-3.75-16.05-3.75-6.5,0-12.35,1.3-17.55,3.9-5.2,2.6-9.3,6.1-12.3,10.5-3,4.4-4.5,9.35-4.5,14.85,0,1.2.08,2.25.22,3.15.15.9.32,1.7.53,2.4-3.3,0-5.62-.83-6.97-2.48-1.35-1.65-2.03-3.62-2.03-5.92,0-3.5,1.22-7.02,3.67-10.58,2.45-3.55,5.85-6.83,10.2-9.83s9.38-5.42,15.08-7.27c5.7-1.85,11.75-2.77,18.15-2.77,9,0,16.22,1.83,21.68,5.48,5.45,3.65,9.42,8.58,11.92,14.77,2.5,6.2,3.75,13.15,3.75,20.85,0,8.7-1.35,17.02-4.05,24.98-2.7,7.95-6.43,15.25-11.18,21.9-4.75,6.65-10.18,12.45-16.27,17.4-6.1,4.95-12.63,8.8-19.58,11.55-6.95,2.75-13.93,4.12-20.92,4.12-3.1,0-6.05-.43-8.85-1.27-2.8-.85-5.2-2.68-7.2-5.48,1-4.8,2.22-9.97,3.67-15.52,1.45-5.55,3.02-11.25,4.72-17.1,1.7-5.85,3.42-11.6,5.17-17.25,1.75-5.65,3.42-10.92,5.03-15.82,1.6-4.9,3.05-9.2,4.35-12.9,1.3-3.7,2.3-6.5,3-8.4.3-.8.8-1.97,1.5-3.52.7-1.55,1.55-3.12,2.55-4.73,1-1.6,2.15-2.97,3.45-4.12,1.3-1.15,2.7-1.72,4.2-1.72,1.4,0,2.8.5,4.2,1.5-3.1,7.2-6.22,15.15-9.38,23.85-3.15,8.7-6.18,17.68-9.08,26.93-2.9,9.25-5.55,18.28-7.95,27.07ZM663.52,191.74c1.1.5,2.25.88,3.45,1.12,1.2.25,2.45.38,3.75.38,3.3,0,6.77-.97,10.42-2.92,1.4-.75,2.67-1.7,3.83-2.85-.4,2.68-.61,5.1-.61,7.28,0,4.9,1.15,8.6,3.45,11.1,2.3,2.5,5.6,3.75,9.9,3.75,4.7,0,9.25-1.3,13.65-3.9,4.4-2.6,8.42-6.15,12.07-10.65,3.65-4.5,6.68-9.55,9.08-15.15l-1.95-1.5c-3.8,7.9-8.2,14.15-13.2,18.75-5,4.6-10.1,6.9-15.3,6.9-3,0-5.15-.93-6.45-2.77-1.3-1.85-1.95-4.92-1.95-9.23,0-5.3.8-10.75,2.4-16.35,1.6-5.6,3.55-11.05,5.85-16.35h2.25c3.4,0,7.27-.15,11.62-.45,4.35-.3,9.27-.75,14.77-1.35v-2.7c-3.7.4-7.38.65-11.02.75-3.65.1-7.12.15-10.42.15h-5.55c2.9-6.2,5.9-11.95,9-17.25,3.1-5.3,5.7-9.87,7.8-13.72,2.1-3.85,3.15-6.62,3.15-8.33,0-1.1-.33-1.92-.97-2.48-.65-.55-1.38-.82-2.17-.82-1.5,0-3.33,1.18-5.48,3.52-2.15,2.35-4.4,5.5-6.75,9.45-2.35,3.95-4.72,8.45-7.12,13.5-2.4,5.05-4.65,10.28-6.75,15.68-1.4-.1-2.65-.2-3.75-.3-1.1-.1-2.05-.2-2.85-.3v2.7c.8.3,1.65.52,2.55.67s1.85.33,2.85.52c-2.5,6.8-4.57,13.43-6.22,19.88-.32,1.25-.6,2.46-.86,3.63-.85,1.23-1.81,2.3-2.89,3.19-1.95,1.6-3.93,2.73-5.92,3.38-2,.65-3.8.98-5.4.98-2,0-3.9-.5-5.7-1.5,2.9-4.4,5.3-8.97,7.2-13.73,1.9-4.75,2.85-9.08,2.85-12.98,0-3.3-.7-6.05-2.1-8.25-1.4-2.2-4.15-3.3-8.25-3.3-3.1,0-5.75.88-7.95,2.62-2.2,1.75-3.88,4.08-5.02,6.97-1.15,2.9-1.73,6-1.73,9.3,0,3.9.77,7.73,2.33,11.48,1.55,3.75,3.72,6.78,6.53,9.07-2.8,3.5-5.65,6.38-8.55,8.62-2.9,2.25-5.4,3.38-7.5,3.38-1.6,0-2.9-.67-3.9-2.02-1-1.35-1.5-3.52-1.5-6.52,0-1.9.38-4.2,1.12-6.9.75-2.7,1.67-5.42,2.78-8.18,1.1-2.75,2.27-5.2,3.52-7.35,1.25-2.15,2.33-3.62,3.23-4.42-.5-.2-1.03-.38-1.58-.52-.55-.15-1.08-.23-1.58-.23-2.1,0-4.18.9-6.22,2.7-2.05,1.8-3.9,4.15-5.55,7.05-1.65,2.9-2.98,6-3.97,9.3-1,3.3-1.5,6.5-1.5,9.6,0,3.8.9,7.03,2.7,9.68s4.85,3.97,9.15,3.97c3.8,0,7.73-1.5,11.78-4.5,4.05-3,7.77-6.75,11.17-11.25ZM658.79,178.01c-.85-2.95-1.28-5.87-1.28-8.78,0-4.4,1.05-8.05,3.15-10.95,2.1-2.9,4.15-4.35,6.15-4.35,1.3,0,2.38.67,3.23,2.02.85,1.35,1.27,3.48,1.27,6.38,0,3.6-.82,7.43-2.47,11.48s-3.73,7.93-6.22,11.62c-1.7-2-2.98-4.47-3.83-7.42ZM750.51,215.74c-4.6-.4-7.45-1.65-8.55-3.75-1.1-2.1-1.65-4.8-1.65-8.1,0-3.6.75-8.03,2.25-13.28s3.38-10.97,5.62-17.17c2.25-6.2,4.52-12.4,6.83-18.6-1.2.1-2.47.23-3.83.38-1.35.15-3.03.35-5.02.6-2,.25-4.6.63-7.8,1.12.2-2.6,1.17-4.62,2.92-6.08,1.75-1.45,4.07-2.52,6.97-3.22,2.9-.7,6.15-1.1,9.75-1.2,2.8-7.7,5.67-15.23,8.62-22.58,2.95-7.35,5.87-14.07,8.78-20.17-1-.1-1.98-.17-2.92-.23-.95-.05-1.93-.07-2.93-.07-6.4,0-11.35.65-14.85,1.95-3.5,1.3-5.9,3.3-7.2,6-1.3,2.7-1.95,6.15-1.95,10.35,0,2.2.15,4.23.45,6.08.3,1.85.8,3.78,1.5,5.77-3.4-.6-5.9-1.92-7.5-3.98-1.6-2.05-2.4-4.62-2.4-7.73,0-5.2,1.85-9.77,5.55-13.73,3.7-3.95,8.67-7.05,14.92-9.3,6.25-2.25,13.17-3.38,20.78-3.38,5.3,0,10.42.38,15.38,1.12,4.95.75,9.77,1.12,14.47,1.12,2.1,0,4.02-.12,5.78-.38,1.75-.25,3.52-.62,5.32-1.12-3.7,4.2-6.8,7-9.3,8.4-2.5,1.4-5.05,2.1-7.65,2.1-2.3,0-5.28-.32-8.93-.98-3.65-.65-7.78-1.17-12.38-1.57-1.3,3.3-2.75,7.27-4.35,11.92-1.6,4.65-3.25,9.6-4.95,14.85-1.7,5.25-3.4,10.48-5.1,15.67,5,.3,9.72.75,14.17,1.35,4.45.6,8.47.95,12.08,1.05-.8,1.2-1.73,2.13-2.78,2.78-1.05.65-2.53,1.12-4.42,1.42-1.9.3-4.53.52-7.88.67-3.35.15-7.83.28-13.42.38-.6,2.1-1.35,4.6-2.25,7.5-.9,2.9-1.7,5.65-2.4,8.25-.7,2.6-1.25,4.5-1.65,5.7-2.2,7.7-4.08,14.9-5.62,21.6-1.55,6.7-2.38,12.85-2.48,18.45ZM892.56,171.71c-3.2,2.55-6.3,5.8-9.3,9.75-3,3.95-5.8,8.02-8.4,12.23-2.6,4.2-4.9,7.95-6.9,11.25-1.6,0-3.12-.28-4.58-.83-1.45-.55-2.57-1.38-3.38-2.47,0-.5.53-2.05,1.58-4.65.5-1.24,1.04-2.62,1.62-4.13-.31.4-.62.81-.94,1.2-3.4,4.15-7,7.38-10.8,9.67-3.8,2.3-7.5,3.45-11.1,3.45-2.6,0-4.68-.5-6.22-1.5-1.55-1-2.65-2.35-3.3-4.05-.65-1.7-.98-3.55-.98-5.55,0-1.2.1-2.42.3-3.67.2-1.25.45-2.52.75-3.83-1.8,3.3-3.75,6.38-5.85,9.23-2.1,2.85-4.3,5.12-6.6,6.83-2.3,1.7-4.7,2.55-7.2,2.55-3.4,0-6.13-1.53-8.17-4.58-2.05-3.05-3.08-6.57-3.08-10.57,0-2.9.47-6.25,1.42-10.05.95-3.8,2.12-7.55,3.53-11.25,1.4-3.7,2.85-6.75,4.35-9.15s2.8-3.6,3.9-3.6c.5,0,1.35.28,2.55.83,1.2.55,2.2,1.27,3,2.17-1.1,1.7-2.45,4.3-4.05,7.8-1.6,3.5-3,7.25-4.2,11.25-1.2,4-1.8,7.7-1.8,11.1,0,.8.1,2.02.3,3.67.2,1.65.7,3.13,1.5,4.42.8,1.3,2,1.95,3.6,1.95,1.9,0,3.85-.98,5.85-2.92,2-1.95,4.02-4.47,6.08-7.58,2.05-3.1,4.02-6.45,5.92-10.05,1.9-3.6,3.67-7.05,5.33-10.35,1.65-3.3,3.02-6.05,4.12-8.25.6.1,1.47.3,2.62.6,1.15.3,2.2.7,3.15,1.2.95.5,1.42,1.2,1.42,2.1,0,.4-.5,1.73-1.5,3.98-1,2.25-2.17,5-3.52,8.25-1.35,3.25-2.53,6.52-3.53,9.82-1,3.3-1.5,6.2-1.5,8.7,0,1.8.38,3.25,1.12,4.35.75,1.1,2.03,1.65,3.83,1.65,2.1,0,4.65-.95,7.65-2.85,3-1.9,6.05-4.67,9.15-8.32,2.71-3.2,5.16-6.95,7.34-11.26.47-1.51.93-3.03,1.36-4.57,1.1-4,1.65-7.65,1.65-10.95.6-.7,1.55-1.4,2.85-2.1,1.3-.7,2.65-1.05,4.05-1.05,2.7,0,4.05,1.3,4.05,3.9,0,1.6-.45,4.28-1.35,8.03-.9,3.75-2.05,7.68-3.45,11.77,2.7-4.1,5.72-8.18,9.08-12.23,3.35-4.05,6.92-7.42,10.73-10.12,3.8-2.7,7.6-4.05,11.4-4.05s6.72,1.4,8.48,4.2c1.75,2.8,2.62,5.9,2.62,9.3,0,3.1-.5,5.98-1.5,8.62-1,2.65-2.03,5.2-3.08,7.65-1.05,2.45-1.58,4.93-1.58,7.42,0,2.1.42,3.58,1.28,4.43.85.85,1.92,1.27,3.22,1.27,2.5,0,5-1.17,7.5-3.52,2.5-2.35,4.92-5.33,7.28-8.93,2.35-3.6,4.42-7.25,6.22-10.95l1.65,1.95c-2.1,4.9-4.45,9.25-7.05,13.05-2.6,3.8-5.45,6.8-8.55,9-3.1,2.2-6.55,3.3-10.35,3.3-3.5,0-6.13-.9-7.88-2.7-1.75-1.8-2.62-4.1-2.62-6.9,0-2.1.38-4.3,1.12-6.6.75-2.3,1.47-4.67,2.17-7.12.7-2.45,1.05-4.82,1.05-7.12,0-2.8-.58-4.72-1.72-5.77-1.15-1.05-2.58-1.57-4.28-1.57-3.1,0-6.25,1.27-9.45,3.82ZM289.43,250.95c.54.67.81,1.5.81,2.5,0,.84-.15,1.75-.44,2.71-.29.97-.65,1.89-1.07,2.76s-.82,1.62-1.19,2.22c-.42-.09-.72-.27-.89-.54-.17-.27-.26-.59-.26-.96,0-.49.1-1.05.31-1.68.21-.63.45-1.28.72-1.96.27-.68.51-1.34.72-1.98s.31-1.22.31-1.73c0-.47-.14-.83-.42-1.1-.28-.27-.79-.4-1.54-.4-1.1,0-2.11.26-3.04.77-.93.51-1.75,1.17-2.45,1.98-.7.8-1.24,1.65-1.63,2.54-.39.89-.58,1.69-.58,2.42,0,.86.25,1.6.75,2.22.5.62,1.15,1.18,1.94,1.68.79.5,1.64,1,2.54,1.5.9.5,1.74,1.06,2.54,1.66.79.61,1.44,1.32,1.94,2.15.5.83.75,1.84.75,3.03s-.27,2.28-.81,3.2c-.54.92-1.25,1.7-2.15,2.33-.9.63-1.88,1.11-2.96,1.43-1.07.33-2.15.49-3.22.49-1.26,0-2.45-.23-3.57-.68-1.12-.46-2.02-1.15-2.71-2.08-.69-.93-1.03-2.1-1.03-3.5,0-1.21.24-2.16.72-2.83.48-.68,1.07-1.16,1.77-1.44.7-.28,1.37-.42,2-.42-.63.68-1.11,1.42-1.44,2.24-.33.82-.49,1.63-.49,2.45,0,.86.19,1.67.58,2.42.39.75.97,1.35,1.77,1.8.79.46,1.8.68,3.01.68,1.05,0,2.08-.19,3.08-.58s1.83-.96,2.47-1.71c.64-.76.96-1.7.96-2.82,0-1-.26-1.87-.77-2.59-.51-.72-1.17-1.37-1.98-1.93-.8-.56-1.66-1.1-2.57-1.61-.91-.51-1.77-1.06-2.57-1.63-.8-.57-1.46-1.23-1.98-1.98-.51-.75-.77-1.64-.77-2.7,0-.98.23-2.01.7-3.08.47-1.07,1.14-2.09,2.01-3.05.88-.96,1.92-1.73,3.15-2.33s2.6-.89,4.11-.89c1.38,0,2.33.33,2.87,1ZM346.1,272.57c-.84.93-1.75,1.69-2.73,2.26-.98.57-1.97.86-2.98.86-.54,0-.99-.08-1.35-.25-.36-.16-.65-.39-.86-.68s-.36-.61-.44-.96c-.08-.35-.12-.7-.12-1.05,0-.19.01-.38.04-.59.02-.21.06-.43.1-.67,1-.09,2.01-.33,3.03-.72s1.95-.88,2.8-1.49c.85-.61,1.54-1.3,2.07-2.08.52-.78.79-1.62.79-2.5s-.23-1.44-.68-1.71c-.46-.28-.95-.42-1.49-.42-1.03,0-2.06.32-3.11.96-1.05.64-2.01,1.48-2.89,2.5s-1.58,2.12-2.1,3.29c-.32.72-.53,1.41-.66,2.09-.42.54-.87,1.06-1.39,1.55-.56.54-1.14.98-1.73,1.33-.59.35-1.17.53-1.73.53-.28,0-.52-.07-.73-.21-.21-.14-.31-.42-.31-.84,0-.49.15-1.06.44-1.71.29-.65.58-1.34.88-2.06.29-.72.44-1.44.44-2.14,0-.75-.18-1.36-.54-1.84-.36-.48-.78-.89-1.24-1.23-.47-.34-.88-.64-1.24-.91-.36-.27-.54-.57-.54-.89,0-.07.06-.27.19-.61.13-.34.19-.57.19-.68s-.02-.29-.05-.51c-.04-.22-.18-.33-.44-.33-.19,0-.48.22-.88.67-.4.44-.6,1.02-.6,1.72,0,.33.12.61.35.84-.51,1.49-1.03,2.82-1.56,3.99-.33.74-.62,1.36-.88,1.87-.96,1.62-1.91,2.87-2.85,3.71-1.03.92-1.85,1.38-2.49,1.38-.42,0-.72-.17-.91-.51-.19-.34-.28-.68-.28-1.03,0-.42.1-.87.31-1.35s.44-.95.7-1.42c.26-.47.49-.88.7-1.24.21-.36.32-.65.32-.86,0-.19-.08-.34-.25-.46-.16-.12-.36-.21-.58-.28-.22-.07-.4-.12-.54-.14-.02,0-.08.07-.17.21-.47.7-1,1.47-1.61,2.31-.61.84-1.24,1.65-1.91,2.43-.67.78-1.31,1.42-1.94,1.92-.63.5-1.21.75-1.75.75-.63,0-.95-.46-.95-1.37,0-.68.14-1.45.42-2.31.28-.86.67-1.74,1.16-2.62.49-.89,1.05-1.71,1.68-2.47.63-.76,1.28-1.37,1.96-1.82.68-.45,1.34-.68,1.99-.68s1.07.19,1.33.58c.26.38.39.85.39,1.38,0,.19-.02.39-.05.61s-.08.43-.12.61c.51,0,.93-.11,1.24-.32s.47-.61.47-1.19c0-.79-.3-1.43-.91-1.91-.61-.48-1.37-.72-2.27-.72s-1.83.23-2.75.7c-.92.47-1.8,1.09-2.62,1.87-.83.78-1.57,1.65-2.22,2.59-.65.95-1.17,1.9-1.54,2.87-.03.07-.05.15-.08.22-.19.29-.38.59-.59.86-.65.85-1.31,1.54-1.98,2.05-.67.51-1.27.77-1.8.77-.3,0-.55-.1-.75-.31s-.3-.55-.3-1.02c0-.58.13-1.19.39-1.82.26-.63.51-1.28.75-1.96.24-.68.37-1.38.37-2.1,0-.51-.09-1.01-.26-1.49-.18-.48-.46-.88-.84-1.19-.38-.32-.9-.47-1.56-.47s-1.23.16-1.79.47c-.56.31-1.09.76-1.59,1.33-.5.57-.97,1.24-1.42,2-.44.76-.86,1.59-1.24,2.49-.39.9-.74,1.83-1.07,2.78-.02-.16-.04-.34-.05-.52-.01-.19-.02-.41-.02-.67,0-.63.05-1.35.14-2.15.09-.81.24-1.63.44-2.47.2-.84.44-1.6.72-2.28.82-.49,1.62-1.16,2.42-2.01.79-.85,1.53-1.79,2.21-2.82.68-1.03,1.27-2.07,1.79-3.13.51-1.06.92-2.06,1.21-2.99.29-.93.44-1.73.44-2.38,0-.47-.09-.95-.26-1.45-.17-.5-.47-.75-.89-.75-.51,0-1.12.4-1.82,1.19s-1.45,1.85-2.24,3.18c-.79,1.33-1.57,2.81-2.33,4.45-.76,1.63-1.44,3.3-2.05,5-.61,1.7-1.1,3.33-1.47,4.87-.37,1.54-.56,2.87-.56,3.99,0,.93.13,1.77.39,2.52.26.75.61,1.12,1.05,1.12.33,0,.64-.23.94-.7s.61-1.07.91-1.8c.3-.73.62-1.51.96-2.33.34-.82.7-1.59,1.08-2.33.39-.74.81-1.34,1.28-1.8.47-.47.99-.7,1.57-.7.37,0,.69.13.95.38.26.26.38.69.38,1.29,0,.56-.09,1.16-.26,1.79-.17.63-.36,1.25-.54,1.86-.19.61-.28,1.15-.28,1.64,0,.63.2,1.16.61,1.58s1.01.63,1.8.63c.91,0,1.79-.27,2.62-.8.76-.48,1.46-1.13,2.1-1.93-.02.22-.03.43-.03.64,0,.98.25,1.71.75,2.19.5.48,1.11.72,1.84.72.86,0,1.71-.34,2.54-1.01s1.74-1.69,2.75-3.04c-.02.19-.05.37-.07.54-.02.17-.04.33-.04.47,0,.61.2,1.17.61,1.68.41.51,1.04.77,1.91.77s1.7-.27,2.57-.8,1.7-1.28,2.47-2.24c.55-.68,1.02-1.44,1.43-2.27.33-.6.73-1.39,1.2-2.38.58-1.24,1.14-2.54,1.68-3.92.44.3.88.64,1.31,1s.65.92.65,1.66c0,.61-.16,1.29-.47,2.05-.31.76-.64,1.52-.96,2.29-.33.77-.49,1.5-.49,2.21s.23,1.23.68,1.65,1.08.63,1.87.63c1,0,1.98-.3,2.92-.91s1.8-1.38,2.57-2.33c.05-.06.09-.12.14-.18,0,1.14.36,2.1,1.07,2.88.71.78,1.78,1.17,3.2,1.17,1.17,0,2.32-.29,3.45-.86,1.13-.57,2.18-1.37,3.15-2.4.97-1.03,1.77-2.24,2.4-3.64l-.42-.31c-.58,1.12-1.29,2.15-2.13,3.08ZM338.99,268.3c.47-.84.99-1.61,1.57-2.31.58-.7,1.19-1.27,1.82-1.7.63-.43,1.23-.65,1.79-.65.3,0,.5.07.6.21.09.14.14.34.14.59,0,.75-.24,1.46-.72,2.13-.48.68-1.08,1.29-1.82,1.86-.74.56-1.5,1.04-2.29,1.45-.79.41-1.51.72-2.14.93.23-.84.58-1.68,1.05-2.52ZM297.62,260.17c.63-1.35,1.27-2.57,1.92-3.64.65-1.07,1.23-1.93,1.73-2.57.5-.64.83-.96,1-.96.05,0,.08.02.1.05.02.04.04.11.04.23,0,.35-.12.88-.35,1.58-.23.7-.56,1.48-.98,2.34s-.9,1.74-1.44,2.64c-.54.9-1.11,1.74-1.73,2.54-.62.79-1.25,1.45-1.91,1.96.44-1.42.98-2.81,1.61-4.17ZM410.76,259.76c-.29-.19-.44-.48-.44-.88,0-.49.29-.92.86-1.28.57-.36,1.14-.54,1.7-.54.35,0,.63.08.84.25s.31.44.31.84c0,.44-.24.87-.72,1.28-.48.41-1,.61-1.56.61-.37,0-.71-.09-1-.28ZM437.86,269.52c-.68,1.31-1.38,2.26-2.1,2.85-.72.59-1.49.96-2.31,1.1.07-.26.12-.53.16-.82.04-.29.05-.59.05-.89,0-1.07-.15-2.11-.46-3.1-.3-.99-.61-1.94-.91-2.83s-.45-1.73-.45-2.5c0-.4.03-.72.1-.98.07-.26.1-.44.1-.56s-.05-.22-.14-.31-.23-.14-.42-.14c-.33,0-.64.18-.93.54-.29.36-.44.97-.44,1.84v.42c-.44.93-.96,1.82-1.54,2.66-.58.84-1.22,1.65-1.92,2.42-.09.09-.26.19-.51.28-.07.03-.14.06-.21.1l-.13-.1c-.04.08-.1.16-.14.24-.1.06-.19.11-.29.18-.27.19-.5.47-.68.84-.11.22-.18.5-.23.83-.25.34-.5.68-.79.99-.84.93-1.75,1.69-2.73,2.26-.98.57-1.97.86-2.98.86-.54,0-.99-.08-1.35-.25-.36-.16-.65-.39-.86-.68s-.36-.61-.44-.96c-.08-.35-.12-.7-.12-1.05,0-.19.01-.38.04-.59.02-.21.06-.43.1-.67,1-.09,2.01-.33,3.03-.72s1.95-.88,2.8-1.49c.85-.61,1.54-1.3,2.07-2.08.52-.78.79-1.62.79-2.5s-.23-1.44-.68-1.71c-.46-.28-.95-.42-1.49-.42-1.03,0-2.06.32-3.11.96-1.05.64-2.01,1.48-2.89,2.5s-1.58,2.12-2.1,3.29c-.3.68-.51,1.33-.64,1.97-.64,1.04-1.25,1.85-1.85,2.37-.9.79-1.74,1.19-2.54,1.19-.58,0-1.02-.14-1.29-.42-.28-.28-.42-.84-.42-1.68s.18-1.67.54-2.57c.36-.9.79-1.76,1.28-2.57.49-.82.92-1.54,1.28-2.17.36-.63.54-1.08.54-1.36,0-.26-.08-.45-.23-.58-.15-.13-.33-.19-.54-.19-.47,0-.95.25-1.44.75-.49.5-.95,1.15-1.38,1.94-.43.79-.81,1.64-1.14,2.54-.24.66-.43,1.29-.61,1.91-.16.27-.34.54-.55.82-.44.59-.94,1.16-1.5,1.7-.56.54-1.14.98-1.73,1.33-.6.35-1.17.53-1.73.53-.28,0-.52-.07-.74-.21-.21-.14-.31-.42-.31-.84,0-.49.15-1.06.44-1.71.29-.65.58-1.34.88-2.06.29-.72.44-1.44.44-2.14,0-.75-.18-1.36-.54-1.84s-.78-.89-1.24-1.23c-.47-.34-.88-.64-1.24-.91-.36-.27-.54-.57-.54-.89,0-.07.06-.27.19-.61.13-.34.19-.57.19-.68s-.02-.29-.05-.51-.18-.33-.44-.33c-.12,0-.3.1-.54.3s-.46.48-.65.84c-.19.36-.28.78-.28,1.24,0,.33.12.61.35.84-.21.77-.52,1.58-.93,2.42-.41.84-.87,1.62-1.38,2.33s-1.03,1.29-1.56,1.75c-.53.46-1.02.68-1.49.68-.72,0-1.25-.16-1.57-.47-.33-.31-.49-.8-.49-1.45s.11-1.23.33-1.79c.22-.56.45-1.07.68-1.52.23-.46.35-.82.35-1.1,0-.21-.09-.49-.26-.84-.17-.35-.48-.53-.93-.53h-.12s-.08.01-.12.04c-.09-.21-.26-.38-.49-.53-.23-.14-.57-.21-1.02-.21-.84,0-1.67.24-2.48.72-.82.48-1.58,1.1-2.29,1.87-.71.77-1.35,1.62-1.91,2.54-.49.8-.86,1.6-1.17,2.41-.78,1.42-1.64,2.6-2.61,3.49-1.17,1.07-2.36,1.61-3.57,1.61-.7,0-1.2-.22-1.51-.65-.3-.43-.46-1.15-.46-2.15,0-1.24.19-2.51.56-3.81.37-1.31.83-2.58,1.37-3.82h.52c.79,0,1.7-.04,2.71-.1,1.02-.07,2.16-.17,3.45-.32v-.63c-.86.09-1.72.15-2.57.17-.85.02-1.66.04-2.43.04h-1.29c.68-1.45,1.38-2.79,2.1-4.03.72-1.24,1.33-2.3,1.82-3.2.49-.9.74-1.54.74-1.94,0-.26-.08-.45-.23-.58-.15-.13-.32-.19-.51-.19-.35,0-.78.27-1.28.82-.5.55-1.03,1.28-1.57,2.21-.55.92-1.1,1.97-1.66,3.15-.56,1.18-1.08,2.4-1.58,3.66-.33-.02-.62-.05-.88-.07-.26-.02-.48-.05-.67-.07v.63c.19.07.39.12.6.16.21.03.43.08.67.12-.58,1.59-1.07,3.13-1.45,4.64-.06.25-.12.49-.17.73-.55.94-1.12,1.66-1.7,2.14-.72.59-1.49.96-2.31,1.1.07-.26.12-.53.16-.82.04-.29.05-.59.05-.89,0-1.07-.15-2.11-.46-3.1-.3-.99-.61-1.94-.91-2.83s-.45-1.73-.45-2.5c0-.4.03-.72.1-.98.07-.26.1-.44.1-.56s-.05-.22-.14-.31-.23-.14-.42-.14c-.33,0-.64.18-.93.54-.29.36-.44.97-.44,1.84v.42c-.44.93-.96,1.82-1.54,2.66-.58.84-1.22,1.65-1.92,2.42-.09.09-.26.19-.51.28-.25.09-.5.23-.77.42-.27.19-.5.47-.68.84-.19.37-.28.91-.28,1.61s.13,1.4.4,2.1c.27.7.72,1.29,1.36,1.77.64.48,1.51.72,2.61.72,1,0,1.91-.23,2.71-.7.8-.47,1.39-1.2,1.77-2.21,1.05-.16,2.02-.58,2.91-1.24.37-.28.7-.63,1-1.02-.08.55-.12,1.07-.12,1.53,0,1.14.27,2.01.81,2.59.54.58,1.31.88,2.31.88,1.1,0,2.16-.3,3.19-.91,1.03-.61,1.97-1.44,2.82-2.49.23-.29.42-.6.63-.91-.03.26-.06.52-.06.77,0,.89.25,1.62.73,2.19.49.57,1.18.86,2.06.86,1.24,0,2.39-.54,3.45-1.63,1.06-1.08,1.95-2.48,2.68-4.18.28.54.68.94,1.21,1.21.52.27,1.11.4,1.77.4s1.32-.23,1.94-.7c.62-.47,1.2-1.08,1.73-1.84s1.02-1.58,1.45-2.45c.43-.88.78-1.71,1.03-2.5.44.3.88.64,1.31,1,.43.36.65.92.65,1.66,0,.61-.16,1.29-.47,2.05-.31.76-.64,1.52-.96,2.29-.33.77-.49,1.5-.49,2.21s.23,1.23.68,1.65,1.08.63,1.87.63c1,0,1.98-.3,2.92-.91.95-.61,1.8-1.38,2.57-2.33.19-.24.38-.48.55-.72-.06.38-.1.72-.1,1.01,0,.82.22,1.51.67,2.08.44.57,1.12.86,2.03.86,1.38,0,2.7-.54,3.97-1.61.55-.46,1.03-1.03,1.46-1.66.03,1.07.38,1.99,1.06,2.73.71.78,1.78,1.17,3.2,1.17,1.17,0,2.32-.29,3.45-.86,1.13-.57,2.18-1.37,3.15-2.4.21-.23.42-.47.61-.71.04.58.15,1.15.37,1.73.27.7.72,1.29,1.36,1.77.64.48,1.51.72,2.61.72,1,0,1.91-.23,2.71-.7.8-.47,1.39-1.2,1.77-2.21,1.05-.16,2.02-.58,2.91-1.24.89-.67,1.55-1.64,2-2.92l-.31-.35ZM416.59,268.3c.47-.84.99-1.61,1.57-2.31.58-.7,1.19-1.27,1.82-1.7.63-.43,1.23-.65,1.79-.65.3,0,.5.07.6.21.09.14.14.34.14.59,0,.75-.24,1.46-.72,2.13-.48.68-1.08,1.29-1.82,1.86-.74.56-1.5,1.04-2.29,1.45-.79.41-1.51.72-2.14.93.23-.84.58-1.68,1.05-2.52ZM361.5,275.44c-.47.19-.84.28-1.12.28-.91,0-1.62-.36-2.12-1.07-.5-.71-.75-1.49-.75-2.33,0-.79.26-1.2.77-1.22.37.58.94,1.17,1.7,1.75s1.63.97,2.61,1.15c-.26.77-.62,1.25-1.08,1.44ZM362.86,272.71c-.02.26-.06.5-.1.74-1.07-.23-1.98-.68-2.71-1.33s-1.28-1.35-1.63-2.1c.54-.54,1.1-1.21,1.7-2.01.6-.81,1.16-1.65,1.7-2.54.19.96.41,1.98.68,3.06.27,1.08.4,2.18.4,3.27,0,.35-.01.65-.04.91ZM386.96,264.94c-.1.3-.19.65-.24,1.05-.06.4-.09.86-.09,1.4,0,.77.07,1.43.21,1.99-.42,1-.92,1.91-1.5,2.73-.58.82-1.18,1.46-1.78,1.94-.61.48-1.18.72-1.72.72-.42,0-.75-.16-.98-.49-.23-.33-.35-.76-.35-1.29s.11-1.18.33-1.92.53-1.52.93-2.31.88-1.53,1.44-2.22c.56-.69,1.18-1.25,1.87-1.68.69-.43,1.43-.65,2.22-.65-.12.19-.23.43-.33.74ZM429.99,275.44c-.47.19-.84.28-1.12.28-.91,0-1.62-.36-2.12-1.07-.5-.71-.75-1.49-.75-2.33,0-.79.26-1.2.77-1.22.37.58.94,1.17,1.7,1.75s1.63.97,2.61,1.15c-.26.77-.62,1.25-1.08,1.44ZM431.35,272.71c-.02.26-.06.5-.1.74-1.07-.23-1.98-.68-2.71-1.33s-1.28-1.35-1.63-2.1c.54-.54,1.1-1.21,1.7-2.01.6-.81,1.16-1.65,1.7-2.54.19.96.41,1.98.68,3.06.27,1.08.4,2.18.4,3.27,0,.35-.01.65-.04.91ZM439.6,273.49c.17.2.26.43.26.68-.65.68-1.14,1.35-1.45,2.03s-.64,1.35-.96,2.03c-.21-.12-.36-.29-.46-.53-.09-.23-.14-.49-.14-.77,0-.47.1-1,.31-1.59s.48-1.1.81-1.52c.33-.42.67-.63,1.02-.63.23,0,.44.1.61.3ZM474.3,263.29c-.91,0-1.75.27-2.52.81-.77.54-1.45,1.2-2.05,1.99-.6.79-1.09,1.58-1.49,2.35.26-1.14.46-2.14.6-2.98s.21-1.42.21-1.75c0-.4-.13-.76-.38-1.1-.26-.34-.69-.51-1.3-.51-.28,0-.45.05-.52.14-.07.09-.12.25-.14.46-.33,2.8-.65,5.14-.98,7.04,0,.05-.02.1-.03.15-.61,1.11-1.25,1.95-1.9,2.49-.72.59-1.49.96-2.31,1.1.07-.26.12-.53.16-.82.04-.29.05-.59.05-.89,0-1.07-.15-2.11-.46-3.1-.3-.99-.61-1.94-.91-2.83s-.45-1.73-.45-2.5c0-.4.03-.72.1-.98.07-.26.1-.44.1-.56s-.05-.22-.14-.31-.23-.14-.42-.14c-.33,0-.64.18-.93.54-.29.36-.44.97-.44,1.84v.42c-.44.93-.96,1.82-1.54,2.66-.58.84-1.22,1.65-1.92,2.42-.09.09-.26.19-.51.28-.25.09-.5.23-.77.42-.27.19-.5.47-.68.84-.19.37-.28.91-.28,1.61s.13,1.4.4,2.1c.27.7.72,1.29,1.36,1.77.64.48,1.51.72,2.61.72,1,0,1.91-.23,2.71-.7.8-.47,1.39-1.2,1.77-2.21,1.05-.16,2.02-.58,2.91-1.24.45-.34.84-.75,1.17-1.25-.21,1.11-.42,2.09-.62,2.93-.3,1.27-.61,2.38-.93,3.33s-.63,1.87-.95,2.76-.64,1.92-.96,3.06c0,.05.05.18.14.4s.23.43.4.63c.18.2.36.3.54.3.16,0,.3-.06.42-.17.21-.19.47-.7.79-1.54s.67-1.92,1.05-3.24c.38-1.32.79-2.79,1.21-4.41.42-1.62.84-3.31,1.26-5.06.21-.51.52-1.09.93-1.73s.88-1.26,1.4-1.85c.52-.6,1.08-1.09,1.68-1.47.6-.38,1.2-.58,1.8-.58.7,0,1.21.26,1.52.79.31.53.47,1.16.47,1.91,0,.89-.19,1.78-.58,2.69-.39.91-.92,1.74-1.59,2.49s-1.44,1.35-2.29,1.8c-.85.46-1.74.68-2.68.68-.23,0-.44,0-.61.02-.17.01-.26.06-.26.16,0,.14.19.28.56.42.37.14.86.21,1.47.21,1.21,0,2.32-.28,3.33-.84,1-.56,1.87-1.29,2.61-2.19s1.31-1.86,1.71-2.87c.41-1.02.61-1.98.61-2.89,0-1.19-.33-2.15-1-2.89-.67-.73-1.51-1.1-2.54-1.1ZM458.02,275.44c-.47.19-.84.28-1.12.28-.91,0-1.62-.36-2.12-1.07-.5-.71-.75-1.49-.75-2.33,0-.79.26-1.2.77-1.22.37.58.94,1.17,1.7,1.75s1.63.97,2.61,1.15c-.26.77-.62,1.25-1.08,1.44ZM459.39,272.71c-.02.26-.06.5-.1.74-1.07-.23-1.98-.68-2.71-1.33s-1.28-1.35-1.63-2.1c.54-.54,1.1-1.21,1.7-2.01.6-.81,1.16-1.65,1.7-2.54.19.96.41,1.98.68,3.06.27,1.08.4,2.18.4,3.27,0,.35-.01.65-.04.91ZM521.11,272.34c-.55.85-1.13,1.53-1.73,2.05-.61.51-1.25.77-1.92.77-.47,0-.86-.19-1.19-.58-.33-.39-.6-.85-.82-1.38-.22-.54-.39-1.05-.51-1.54-.12-.49-.19-.83-.21-1.01.35,0,.8-.08,1.35-.23.55-.15,1.1-.39,1.65-.7.55-.32,1.02-.74,1.4-1.26.39-.53.58-1.16.58-1.91,0-.86-.3-1.6-.91-2.21-.61-.61-1.34-.91-2.2-.91s-1.69.33-2.49.98c-.79.65-1.53,1.49-2.21,2.52-.68,1.03-1.28,2.1-1.8,3.22s-.97,2.15-1.35,3.08c0-1.21.19-2.71.58-4.5.38-1.78.96-3.62,1.73-5.51,1.03-.63,1.98-1.39,2.85-2.28s1.63-1.83,2.27-2.83c.64-1,1.14-2,1.49-2.99.35-.99.52-1.88.52-2.68,0-.63-.1-1.17-.3-1.61-.2-.44-.46-.67-.79-.67-.42,0-.97.38-1.65,1.16-.68.77-1.41,1.81-2.21,3.12-.79,1.31-1.59,2.76-2.38,4.38-.79,1.61-1.52,3.27-2.19,4.99s-1.2,3.37-1.59,4.95c-.13.51-.23.99-.31,1.46-.18.33-.4.68-.67,1.04-.44.59-.94,1.16-1.5,1.7-.56.54-1.14.98-1.73,1.33-.59.35-1.17.53-1.73.53-.28,0-.52-.07-.73-.21-.21-.14-.31-.42-.31-.84,0-.49.15-1.06.44-1.71.29-.65.58-1.34.88-2.06.29-.72.44-1.44.44-2.14,0-.75-.18-1.36-.54-1.84-.36-.48-.78-.89-1.24-1.23-.47-.34-.88-.64-1.24-.91-.36-.27-.54-.57-.54-.89,0-.07.06-.27.19-.61.13-.34.19-.57.19-.68s-.02-.29-.05-.51c-.04-.22-.18-.33-.44-.33-.19,0-.48.22-.88.67-.4.44-.6,1.02-.6,1.72,0,.33.12.61.35.84-.51,1.49-1.03,2.82-1.56,3.99-.33.74-.62,1.35-.87,1.87-.96,1.62-1.91,2.87-2.85,3.72-1.03.92-1.85,1.38-2.49,1.38-.42,0-.72-.17-.91-.51-.19-.34-.28-.68-.28-1.03,0-.42.1-.87.31-1.35s.44-.95.7-1.42c.26-.47.49-.88.7-1.24.21-.36.32-.65.32-.86,0-.19-.08-.34-.25-.46-.16-.12-.36-.21-.58-.28-.22-.07-.4-.12-.54-.14-.02,0-.08.07-.17.21-.47.7-1,1.47-1.61,2.31-.61.84-1.24,1.65-1.91,2.43-.67.78-1.31,1.42-1.94,1.92-.63.5-1.21.75-1.75.75-.63,0-.95-.46-.95-1.37,0-.68.14-1.45.42-2.31.28-.86.67-1.74,1.16-2.62.49-.89,1.05-1.71,1.68-2.47.63-.76,1.28-1.37,1.96-1.82.68-.45,1.34-.68,1.99-.68s1.07.19,1.33.58c.26.38.39.85.39,1.38,0,.19-.02.39-.05.61s-.08.43-.12.61c.51,0,.93-.11,1.24-.32s.47-.61.47-1.19c0-.79-.3-1.43-.91-1.91-.61-.48-1.37-.72-2.27-.72s-1.83.23-2.75.7c-.92.47-1.8,1.09-2.62,1.87-.83.78-1.57,1.65-2.22,2.59-.65.95-1.17,1.9-1.54,2.87-.37.97-.56,1.87-.56,2.71,0,.98.25,1.71.75,2.19.5.48,1.11.72,1.84.72.86,0,1.71-.34,2.54-1.01s1.74-1.69,2.75-3.04c-.02.19-.05.37-.07.54-.02.17-.04.33-.04.47,0,.61.2,1.17.61,1.68.41.51,1.04.77,1.91.77s1.7-.27,2.57-.8,1.7-1.28,2.47-2.24c.54-.68,1.02-1.43,1.42-2.26.33-.6.73-1.39,1.2-2.39.58-1.24,1.14-2.54,1.68-3.92.44.3.88.64,1.31,1s.65.92.65,1.66c0,.61-.16,1.29-.47,2.05-.31.76-.64,1.52-.96,2.29-.33.77-.49,1.5-.49,2.21s.23,1.23.68,1.65,1.08.63,1.87.63c1,0,1.98-.3,2.92-.91s1.8-1.38,2.57-2.33c.31-.38.59-.76.84-1.15-.04.44-.07.87-.07,1.27,0,.54.02,1.06.05,1.56.04.5.14.92.31,1.24.18.33.46.49.86.49.28,0,.55-.08.8-.23.26-.15.46-.44.6-.86.19-.54.42-1.21.7-2.03.28-.82.62-1.68,1.02-2.59.4-.91.85-1.77,1.35-2.57.5-.8,1.07-1.46,1.7-1.96s1.31-.75,2.03-.75c.47,0,.88.14,1.22.42.35.28.53.67.53,1.16,0,.58-.18,1.09-.54,1.52-.36.43-.8.78-1.31,1.05-.51.27-1.02.47-1.51.6-.49.13-.86.19-1.12.19,0,.54.06,1.16.19,1.87.13.71.33,1.41.59,2.08.27.68.64,1.24,1.1,1.68s1.03.67,1.68.67c.82,0,1.64-.32,2.47-.96s1.58-1.47,2.26-2.48c.68-1.02,1.18-2.09,1.5-3.24l-.35-.35c-.47,1.07-.97,2.04-1.52,2.89ZM513.74,257.46c.72-1.34,1.37-2.42,1.94-3.24.57-.82.97-1.23,1.21-1.23.05,0,.08.02.09.07.01.05.02.13.02.25,0,.58-.22,1.38-.67,2.4-.44,1.01-1.07,2.07-1.87,3.17-.81,1.1-1.74,2.08-2.82,2.94.68-1.56,1.38-3.02,2.1-4.36ZM634.74,269.59c-.21.51-.54,1.07-.98,1.66s-.94,1.16-1.5,1.7c-.56.54-1.14.98-1.73,1.33-.59.35-1.17.53-1.73.53-.28,0-.52-.07-.73-.21-.21-.14-.32-.42-.32-.84,0-.49.15-1.06.44-1.71.29-.65.58-1.34.88-2.06.29-.72.44-1.44.44-2.14,0-.75-.18-1.36-.54-1.84-.36-.48-.78-.89-1.24-1.23-.47-.34-.88-.64-1.24-.91-.36-.27-.54-.57-.54-.89,0-.07.06-.27.19-.61.13-.34.19-.57.19-.68s-.02-.29-.05-.51-.18-.33-.44-.33c-.19,0-.48.22-.88.67-.4.44-.6,1.02-.6,1.72,0,.33.12.61.35.84-.51,1.49-1.03,2.82-1.56,3.99-.33.74-.62,1.36-.88,1.87-.53.95-1.15,1.83-1.87,2.64-.84.93-1.75,1.69-2.73,2.26-.98.57-1.97.86-2.98.86-.54,0-.99-.08-1.35-.25-.36-.16-.65-.39-.86-.68s-.36-.61-.44-.96c-.08-.35-.12-.7-.12-1.05,0-.19.01-.38.04-.59.02-.21.06-.43.1-.67,1-.09,2.01-.33,3.03-.72,1.01-.38,1.95-.88,2.8-1.49.85-.61,1.54-1.3,2.06-2.08.53-.78.79-1.62.79-2.5s-.23-1.44-.68-1.71c-.46-.28-.95-.42-1.49-.42-1.03,0-2.07.32-3.12.96-1.05.64-2.01,1.48-2.89,2.5s-1.58,2.12-2.1,3.29c-.31.68-.51,1.34-.64,1.98-.63,1.01-1.32,1.88-2.07,2.57-1.17,1.07-2.36,1.61-3.57,1.61-.7,0-1.2-.22-1.5-.65-.3-.43-.46-1.15-.46-2.15,0-1.24.19-2.51.56-3.81s.83-2.58,1.37-3.82h.53c.79,0,1.7-.04,2.71-.1,1.01-.07,2.16-.17,3.45-.32v-.63c-.86.09-1.72.15-2.57.17-.85.02-1.66.04-2.43.04h-1.29c.68-1.45,1.38-2.79,2.1-4.03.72-1.24,1.33-2.3,1.82-3.2.49-.9.74-1.54.74-1.94,0-.26-.08-.45-.23-.58-.15-.13-.32-.19-.51-.19-.35,0-.78.27-1.28.82s-1.03,1.28-1.58,2.21-1.1,1.97-1.66,3.15c-.56,1.18-1.08,2.4-1.58,3.66-.33-.02-.62-.05-.88-.07s-.48-.05-.67-.07v.63c.19.07.38.12.59.16.21.03.43.08.67.12-.58,1.59-1.07,3.13-1.45,4.64-.07.25-.12.49-.17.73-.38.71-.8,1.4-1.28,2.03-.65.85-1.31,1.54-1.98,2.05-.67.51-1.27.77-1.8.77-.3,0-.55-.1-.75-.31s-.3-.55-.3-1.02c0-.58.13-1.19.38-1.82.26-.63.51-1.28.75-1.96s.37-1.38.37-2.1c0-.51-.09-1.01-.26-1.49-.17-.48-.46-.88-.84-1.19-.39-.32-.91-.47-1.56-.47s-1.23.16-1.79.47c-.56.31-1.09.76-1.59,1.33-.5.57-.97,1.24-1.42,2-.44.76-.86,1.59-1.24,2.49-.38.9-.74,1.83-1.07,2.78-.02-.16-.04-.34-.05-.52-.01-.19-.02-.41-.02-.67,0-.63.05-1.35.14-2.15.09-.81.24-1.63.44-2.47s.44-1.6.72-2.28c.82-.49,1.62-1.16,2.42-2.01.79-.85,1.53-1.79,2.21-2.82.68-1.03,1.27-2.07,1.78-3.13.51-1.06.92-2.06,1.21-2.99.29-.93.44-1.73.44-2.38,0-.47-.09-.95-.26-1.45s-.47-.75-.89-.75c-.51,0-1.12.4-1.82,1.19-.7.79-1.45,1.85-2.24,3.18-.79,1.33-1.57,2.81-2.33,4.45-.76,1.63-1.44,3.3-2.05,5-.61,1.7-1.1,3.33-1.47,4.87-.05.22-.09.42-.14.63h0c-.35.89-.83,1.71-1.44,2.47-.61.76-1.28,1.43-2.01,2.01-.74.58-1.49,1.06-2.26,1.44.54-1.4,1.01-2.76,1.42-4.08s.72-2.47.95-3.47c.22-.99.33-1.67.33-2.05-.14-.05-.27-.08-.39-.09-.12-.01-.23-.02-.35-.02-.58,0-1.01.22-1.28.65-.27.43-.44.81-.51,1.14-.09.4-.17.72-.23.98s-.12.55-.19.88c-.89,1.28-1.8,2.37-2.75,3.27-.95.9-1.76,1.35-2.43,1.35-.37,0-.67-.15-.89-.44-.22-.29-.33-.72-.33-1.28,0-.75.19-1.57.58-2.47.38-.9.9-1.77,1.56-2.61.65-.84,1.41-1.53,2.26-2.06.85-.54,1.73-.8,2.64-.8.35,0,.64.04.88.12.23.08.41.22.53.4.05-.02.13-.09.25-.21s.17-.28.17-.49c0-.3-.15-.57-.44-.79-.29-.22-.78-.33-1.45-.33-.93,0-1.94.24-3.01.72-1.07.48-2.09,1.14-3.04,1.98s-1.73,1.81-2.33,2.91c-.47.88-.75,1.79-.85,2.74-.28.43-.57.83-.88,1.2-.72.85-1.44,1.5-2.14,1.94-.7.44-1.29.67-1.78.67-.42,0-.72-.13-.89-.38-.18-.26-.26-.6-.26-1.02,0-.58.12-1.26.35-2.03.23-.77.51-1.53.82-2.29.31-.76.59-1.4.82-1.92.23-.53.35-.83.35-.93,0-.21-.11-.37-.33-.49-.22-.12-.47-.21-.74-.28-.27-.07-.47-.12-.61-.14-.26.51-.58,1.16-.96,1.93-.38.77-.8,1.57-1.24,2.42-.44.84-.9,1.62-1.38,2.34s-.95,1.31-1.42,1.77c-.47.46-.92.68-1.37.68-.37,0-.65-.15-.84-.46-.19-.3-.3-.65-.35-1.03-.05-.38-.07-.67-.07-.86,0-.79.14-1.66.42-2.59.28-.93.61-1.81.98-2.62.37-.82.69-1.42.95-1.82-.19-.21-.42-.38-.7-.51s-.48-.19-.59-.19c-.26,0-.56.28-.91.84-.35.56-.69,1.27-1.01,2.13-.27.72-.5,1.45-.7,2.19-.97,1.63-1.92,2.89-2.87,3.74-1.03.92-1.85,1.38-2.48,1.38-.42,0-.72-.17-.91-.51-.19-.34-.28-.68-.28-1.03,0-.42.11-.87.32-1.35s.44-.95.7-1.42c.26-.47.49-.88.7-1.24.21-.36.32-.65.32-.86,0-.19-.08-.34-.25-.46-.16-.12-.36-.21-.58-.28-.22-.07-.4-.12-.54-.14-.02,0-.08.07-.17.21-.47.7-1,1.47-1.61,2.31-.61.84-1.24,1.65-1.91,2.43-.67.78-1.31,1.42-1.94,1.92-.63.5-1.21.75-1.75.75-.63,0-.95-.46-.95-1.37,0-.68.14-1.45.42-2.31s.67-1.74,1.16-2.62,1.05-1.71,1.68-2.47c.63-.76,1.28-1.37,1.96-1.82.68-.45,1.34-.68,2-.68s1.07.19,1.33.58.38.85.38,1.38c0,.19-.02.39-.05.61-.04.22-.08.43-.12.61.51,0,.93-.11,1.24-.32.32-.21.47-.61.47-1.19,0-.79-.3-1.43-.91-1.91s-1.36-.72-2.27-.72-1.83.23-2.75.7-1.8,1.09-2.62,1.87c-.83.78-1.57,1.65-2.22,2.59-.65.95-1.17,1.9-1.54,2.87-.1.26-.18.51-.26.76-.04.06-.07.13-.11.19-.55.85-1.13,1.56-1.75,2.12-.62.56-1.24.84-1.87.84-.51,0-.9-.22-1.16-.67-.26-.44-.38-1.12-.38-2.03,0-.54.04-1.1.12-1.7.08-.59.19-1.21.33-1.84,1.03-.84,2-1.84,2.92-3.01.92-1.17,1.77-2.39,2.55-3.66.78-1.27,1.46-2.53,2.03-3.78.57-1.25,1.01-2.38,1.33-3.4.31-1.01.47-1.84.47-2.47,0-.33-.05-.69-.14-1.1-.09-.41-.22-.76-.38-1.05-.16-.29-.37-.44-.63-.44-.4,0-.94.4-1.63,1.19s-1.44,1.85-2.26,3.18c-.82,1.33-1.63,2.81-2.45,4.43-.82,1.62-1.57,3.28-2.26,4.99-.69,1.7-1.24,3.33-1.66,4.87s-.63,2.87-.63,3.99c0,1.03.21,1.88.65,2.57.43.69,1.15,1.03,2.15,1.03,1.26,0,2.44-.58,3.54-1.73.32-.34.63-.72.94-1.13-.02.19-.03.37-.03.55,0,.98.25,1.71.75,2.19.5.48,1.11.72,1.84.72.86,0,1.71-.34,2.54-1.01.83-.68,1.74-1.69,2.75-3.04-.02.19-.05.37-.07.54-.02.17-.03.33-.03.47,0,.61.2,1.17.61,1.68.41.51,1.04.77,1.91.77s1.7-.27,2.57-.8,1.7-1.28,2.47-2.24c.33-.41.62-.85.9-1.31-.03.28-.06.57-.06.82,0,.93.24,1.76.72,2.47.48.71,1.11,1.07,1.91,1.07.58,0,1.14-.2,1.68-.59.54-.4,1.05-.93,1.54-1.59.49-.67.95-1.38,1.37-2.15-.07.3-.13.6-.17.89-.05.29-.07.58-.07.86,0,.47.08.9.23,1.29.15.4.41.71.77.95.36.23.84.35,1.45.35.84,0,1.7-.27,2.59-.8s1.73-1.29,2.52-2.26c.15-.19.27-.4.41-.6.06.79.27,1.45.65,1.98.46.63,1.1.95,1.94.95.98,0,1.95-.43,2.92-1.28.97-.85,1.9-1.92,2.78-3.2-.28,1.14-.57,2.19-.86,3.13-.29.94-.6,1.83-.93,2.64-.72.37-1.49.77-2.29,1.19-.8.42-1.55.88-2.22,1.38-.68.5-1.23,1.05-1.66,1.64-.43.6-.65,1.24-.65,1.94s.21,1.24.63,1.56c.42.32.89.47,1.4.47.89,0,1.72-.38,2.5-1.16.78-.77,1.53-1.8,2.26-3.1.72-1.29,1.41-2.72,2.07-4.29.72-.35,1.52-.84,2.4-1.47s1.7-1.38,2.47-2.24c.34-.38.63-.78.89-1.2-.05.47-.09.93-.09,1.34,0,.93.13,1.77.38,2.52s.61,1.12,1.05,1.12c.33,0,.64-.23.95-.7.3-.47.61-1.07.91-1.8.3-.73.62-1.51.96-2.33.34-.82.7-1.59,1.08-2.33.38-.74.81-1.34,1.28-1.8.47-.47.99-.7,1.58-.7.37,0,.69.13.94.38.26.26.39.69.39,1.29,0,.56-.09,1.16-.26,1.79s-.36,1.25-.54,1.86-.28,1.15-.28,1.64c0,.63.2,1.16.61,1.58.41.42,1.01.63,1.8.63.91,0,1.79-.27,2.62-.8.84-.54,1.61-1.27,2.31-2.19.22-.29.41-.61.61-.92-.05.43-.08.84-.08,1.21,0,1.14.27,2.01.8,2.59.54.58,1.31.88,2.31.88,1.1,0,2.16-.3,3.19-.91,1.03-.61,1.96-1.44,2.82-2.49.18-.23.34-.49.51-.73,0,1.14.36,2.1,1.07,2.88.71.78,1.78,1.17,3.2,1.17,1.17,0,2.32-.29,3.45-.86,1.13-.57,2.18-1.37,3.15-2.4.61-.64,1.14-1.37,1.61-2.16v.03c.39-.63.86-1.56,1.45-2.8.58-1.24,1.14-2.54,1.68-3.92.44.3.88.64,1.31,1s.65.92.65,1.66c0,.61-.16,1.29-.47,2.05-.31.76-.64,1.52-.96,2.29-.33.77-.49,1.5-.49,2.21s.23,1.23.68,1.65,1.08.63,1.87.63c1,0,1.98-.3,2.92-.91s1.8-1.38,2.57-2.33c.77-.95,1.38-1.91,1.82-2.89l-.46-.35ZM613.28,268.3c.47-.84.99-1.61,1.58-2.31.58-.7,1.19-1.27,1.82-1.7s1.23-.65,1.79-.65c.3,0,.5.07.59.21.09.14.14.34.14.59,0,.75-.24,1.46-.72,2.13-.48.68-1.08,1.29-1.82,1.86-.73.56-1.5,1.04-2.29,1.45-.79.41-1.5.72-2.13.93.23-.84.58-1.68,1.05-2.52ZM589.38,260.17c.63-1.35,1.27-2.57,1.92-3.64s1.23-1.93,1.73-2.57c.5-.64.83-.96,1-.96.05,0,.08.02.11.05.02.04.03.11.03.23,0,.35-.12.88-.35,1.58s-.56,1.48-.98,2.34c-.42.86-.9,1.74-1.43,2.64-.54.9-1.11,1.74-1.73,2.54-.62.79-1.25,1.45-1.91,1.96.44-1.42.98-2.81,1.61-4.17ZM535.67,263.54c.57-1.4,1.17-2.74,1.8-4.02s1.25-2.43,1.85-3.43c.61-1,1.14-1.8,1.59-2.4s.78-.89.96-.89c.05,0,.1.04.16.11.06.07.09.22.09.46,0,.47-.14,1.13-.42,1.98-.28.85-.68,1.81-1.19,2.89-.51,1.07-1.1,2.18-1.77,3.33-.67,1.14-1.38,2.25-2.15,3.31-.77,1.06-1.56,2-2.38,2.82.4-1.35.88-2.73,1.45-4.13ZM573.05,282.45c-.81.92-1.44,1.38-1.91,1.38-.23,0-.43-.11-.59-.33-.16-.22-.25-.52-.25-.89,0-.68.26-1.29.77-1.86.51-.56,1.17-1.09,1.98-1.59.8-.5,1.67-.99,2.61-1.45-.93,2.24-1.8,3.82-2.61,4.74ZM636.4,273.49c.17.2.26.43.26.68-.65.68-1.14,1.35-1.45,2.03-.31.68-.64,1.35-.96,2.03-.21-.12-.36-.29-.46-.53-.09-.23-.14-.49-.14-.77,0-.47.1-1,.31-1.59s.48-1.1.8-1.52c.33-.42.67-.63,1.02-.63.23,0,.44.1.61.3ZM737.18,273.86c-1.17,1.07-2.36,1.61-3.57,1.61-.7,0-1.2-.22-1.5-.65-.3-.43-.46-1.15-.46-2.15,0-1.24.19-2.51.56-3.81s.83-2.58,1.37-3.82h.53c.79,0,1.7-.04,2.71-.1,1.01-.07,2.16-.17,3.45-.32v-.63c-.86.09-1.72.15-2.57.17-.85.02-1.66.04-2.43.04h-1.29c.68-1.45,1.38-2.79,2.1-4.03.72-1.24,1.33-2.3,1.82-3.2.49-.9.74-1.54.74-1.94,0-.26-.08-.45-.23-.58-.15-.13-.32-.19-.51-.19-.35,0-.78.27-1.28.82s-1.03,1.28-1.58,2.21-1.1,1.97-1.66,3.15c-.56,1.18-1.08,2.4-1.58,3.66-.33-.02-.62-.05-.88-.07s-.48-.05-.67-.07v.63c.19.07.38.12.59.16.21.03.43.08.67.12-.58,1.59-1.07,3.13-1.45,4.64-.09.35-.16.68-.23,1-.42.85-.92,1.63-1.5,2.31-.82.96-1.7,1.69-2.64,2.21-.94.51-1.88.77-2.82.77-1,0-1.68-.3-2.03-.91-.35-.61-.52-1.27-.52-2,0-.86.18-1.78.54-2.76.36-.98.83-1.91,1.4-2.8.57-.89,1.19-1.61,1.86-2.17.66-.56,1.31-.84,1.94-.84.3,0,.51.08.61.23.1.15.16.37.16.65,0,.51-.13,1.06-.38,1.63-.26.57-.56.95-.91,1.14.28.35.62.53,1.01.53.54,0,.96-.26,1.28-.77.31-.51.47-1.11.47-1.79,0-.61-.17-1.19-.52-1.75-.35-.56-1-.84-1.96-.84-.89,0-1.79.26-2.7.79-.91.53-1.74,1.23-2.49,2.12s-1.35,1.88-1.8,2.99c-.17.41-.3.83-.4,1.25-.46.74-.96,1.45-1.54,2.1-.84.93-1.75,1.69-2.73,2.26-.98.57-1.97.86-2.98.86-.54,0-.99-.08-1.35-.25-.36-.16-.65-.39-.86-.68s-.36-.61-.44-.96c-.08-.35-.12-.7-.12-1.05,0-.19.01-.38.04-.59.02-.21.06-.43.1-.67,1-.09,2.01-.33,3.03-.72,1.01-.38,1.95-.88,2.8-1.49.85-.61,1.54-1.3,2.06-2.08.53-.78.79-1.62.79-2.5s-.23-1.44-.68-1.71c-.46-.28-.95-.42-1.49-.42-1.03,0-2.07.32-3.12.96-1.05.64-2.01,1.48-2.89,2.5s-1.58,2.12-2.1,3.29c-.31.69-.52,1.36-.65,2.01-.15.24-.28.48-.44.72-.55.84-1.11,1.54-1.7,2.08-.58.55-1.17.82-1.75.82-.3,0-.55-.1-.75-.3-.2-.2-.3-.54-.3-1.03,0-.58.12-1.16.37-1.73.25-.57.48-1.17.72-1.79.23-.62.35-1.29.35-2.01,0-.79-.2-1.52-.61-2.17-.41-.65-1.07-.98-1.98-.98s-1.77.31-2.66.94c-.89.63-1.72,1.42-2.5,2.36-.78.94-1.49,1.9-2.12,2.85.33-.96.59-1.87.8-2.75.21-.88.32-1.5.32-1.87,0-.61-.32-.91-.95-.91-.33,0-.64.08-.94.25-.3.16-.53.33-.67.49,0,.77-.13,1.62-.39,2.56-.1.38-.24.73-.35,1.1-.36.7-.76,1.4-1.2,2.08-.55.84-1.11,1.54-1.7,2.08-.58.55-1.17.82-1.75.82-.3,0-.55-.1-.75-.3-.2-.2-.3-.54-.3-1.03,0-.58.12-1.16.37-1.73.25-.57.48-1.17.72-1.79.23-.62.35-1.29.35-2.01,0-.79-.2-1.52-.61-2.17-.41-.65-1.07-.98-1.98-.98s-1.77.31-2.66.94c-.89.63-1.72,1.42-2.5,2.36-.78.94-1.49,1.9-2.12,2.85.33-.96.59-1.87.8-2.75.21-.88.32-1.5.32-1.87,0-.61-.32-.91-.95-.91-.33,0-.64.08-.94.25-.3.16-.53.33-.67.49,0,.77-.13,1.62-.39,2.56-.12.43-.27.84-.4,1.26-.23.38-.49.72-.8.98-.46.37-.92.64-1.38.79-.47.15-.89.23-1.26.23-.47,0-.91-.12-1.33-.35.68-1.03,1.24-2.09,1.68-3.2.44-1.11.67-2.12.67-3.03,0-.77-.16-1.41-.49-1.92-.33-.51-.97-.77-1.92-.77-.72,0-1.34.21-1.85.61-.51.41-.91.95-1.17,1.63-.27.68-.4,1.4-.4,2.17,0,.91.18,1.8.54,2.68s.87,1.58,1.52,2.12c-.65.82-1.32,1.49-2,2.01s-1.26.79-1.75.79c-.37,0-.68-.16-.91-.47-.23-.32-.35-.82-.35-1.52,0-.44.09-.98.26-1.61s.39-1.27.65-1.91.53-1.21.82-1.72c.29-.5.54-.84.75-1.03-.12-.05-.24-.09-.37-.12-.13-.04-.25-.05-.37-.05-.49,0-.97.21-1.45.63-.48.42-.91.97-1.29,1.65s-.69,1.4-.93,2.17c0,.02,0,.04-.02.07-.37.69-.79,1.32-1.28,1.89-.82.96-1.7,1.69-2.64,2.21-.94.51-1.88.77-2.82.77-1,0-1.68-.3-2.03-.91-.35-.61-.52-1.27-.52-2,0-.86.18-1.78.54-2.76.36-.98.83-1.91,1.4-2.8.57-.89,1.19-1.61,1.86-2.17.66-.56,1.31-.84,1.94-.84.3,0,.51.08.61.23.1.15.16.37.16.65,0,.51-.13,1.06-.38,1.63-.26.57-.56.95-.91,1.14.28.35.62.53,1.01.53.54,0,.96-.26,1.28-.77.31-.51.47-1.11.47-1.79,0-.61-.17-1.19-.52-1.75-.35-.56-1-.84-1.96-.84-.89,0-1.79.26-2.7.79-.91.53-1.74,1.23-2.49,2.12s-1.35,1.88-1.8,2.99c-.46,1.11-.68,2.25-.68,3.41,0,1.49.37,2.61,1.12,3.36.75.75,1.68,1.12,2.8,1.12s2.27-.32,3.39-.95,2.15-1.5,3.08-2.61c.28-.33.54-.68.78-1.04-.02.19-.04.38-.04.57,0,.89.21,1.64.63,2.26s1.13.93,2.13.93c.89,0,1.8-.35,2.75-1.05.95-.7,1.81-1.58,2.61-2.62.26.12.53.2.81.26.28.06.57.09.88.09.77,0,1.58-.23,2.43-.68.26-.14.5-.32.73-.52-.3.81-.57,1.51-.8,2.08-.24.61-.37.97-.37,1.08.19.26.45.45.79.58.34.13.69.19,1.07.19.47-.77,1-1.65,1.61-2.62.61-.98,1.26-1.93,1.96-2.85s1.42-1.68,2.17-2.28,1.48-.89,2.21-.89c.4,0,.73.12,1,.37.27.25.4.7.4,1.35,0,.54-.08,1.09-.25,1.66-.16.57-.33,1.13-.51,1.66-.17.54-.26,1.05-.26,1.54,0,.65.2,1.19.61,1.61.41.42,1.02.63,1.84.63.89,0,1.69-.26,2.42-.77.69-.49,1.33-1.16,1.91-1.99-.1.25-.2.51-.29.73-.24.61-.37.97-.37,1.08.19.26.45.45.79.58.34.13.69.19,1.07.19.47-.77,1-1.65,1.61-2.62.61-.98,1.26-1.93,1.96-2.85s1.42-1.68,2.17-2.28,1.48-.89,2.21-.89c.4,0,.73.12,1,.37.27.25.4.7.4,1.35,0,.54-.08,1.09-.25,1.66-.16.57-.33,1.13-.51,1.66-.17.54-.26,1.05-.26,1.54,0,.65.2,1.19.61,1.61.41.42,1.02.63,1.84.63.89,0,1.69-.26,2.42-.77.72-.51,1.39-1.21,2-2.1.04-.06.08-.13.12-.19.03,1.07.38,1.99,1.05,2.73.71.78,1.78,1.17,3.2,1.17,1.17,0,2.32-.29,3.45-.86,1.13-.57,2.18-1.37,3.15-2.4.41-.43.78-.91,1.13-1.41-.01.2-.03.4-.03.61,0,1.49.37,2.61,1.12,3.36.75.75,1.68,1.12,2.8,1.12s2.27-.32,3.39-.95,2.15-1.5,3.08-2.61c.38-.45.71-.92,1.02-1.42-.05.41-.08.8-.08,1.15,0,1.14.27,2.01.8,2.59.54.58,1.31.88,2.31.88,1.1,0,2.16-.3,3.19-.91,1.03-.61,1.96-1.44,2.82-2.49.85-1.05,1.56-2.23,2.12-3.54l-.46-.35c-.89,1.84-1.91,3.3-3.08,4.38ZM709.77,268.3c.47-.84.99-1.61,1.58-2.31.58-.7,1.19-1.27,1.82-1.7s1.23-.65,1.79-.65c.3,0,.5.07.59.21.09.14.14.34.14.59,0,.75-.24,1.46-.72,2.13-.48.68-1.08,1.29-1.82,1.86-.73.56-1.5,1.04-2.29,1.45-.79.41-1.5.72-2.13.93.23-.84.58-1.68,1.05-2.52ZM668.82,271.13c-.4-.47-.69-1.04-.89-1.73-.2-.69-.3-1.37-.3-2.05,0-1.03.25-1.88.74-2.56.49-.68.97-1.01,1.43-1.01.3,0,.55.16.75.47.2.31.3.81.3,1.49,0,.84-.19,1.73-.58,2.68-.38.94-.87,1.85-1.45,2.71ZM835.21,249.96c-.37,0-.8.3-1.28.89-.48.59-.98,1.4-1.5,2.42-.53,1.01-1.07,2.17-1.63,3.46-.56,1.29-1.11,2.64-1.66,4.04-.55,1.4-1.08,2.78-1.59,4.13-.75,1.94-1.59,3.63-2.52,5.08-.93,1.45-1.85,2.57-2.75,3.36-.9.79-1.66,1.19-2.29,1.19-.37,0-.68-.15-.91-.46-.23-.3-.35-.71-.35-1.22s.12-1.2.37-1.98c.25-.78.59-1.59,1.03-2.43s.96-1.63,1.56-2.36c.59-.74,1.25-1.33,1.96-1.79.71-.46,1.44-.68,2.19-.68.33,0,.6.04.82.12.22.08.39.22.51.4.02-.09.04-.17.05-.24.01-.07.02-.15.02-.25,0-.37-.13-.65-.4-.82-.27-.17-.65-.26-1.14-.26-.86,0-1.74.24-2.62.72-.89.48-1.74,1.12-2.56,1.93-.82.8-1.54,1.68-2.17,2.62-.63.94-1.13,1.9-1.5,2.85-.02.06-.04.12-.06.18-.23.4-.47.8-.73,1.19-.55.84-1.11,1.54-1.7,2.08-.58.55-1.17.82-1.75.82-.3,0-.55-.1-.75-.3-.2-.2-.3-.54-.3-1.03,0-.58.12-1.16.37-1.73.25-.57.48-1.17.72-1.79.23-.62.35-1.29.35-2.01,0-.79-.2-1.52-.61-2.17-.41-.65-1.07-.98-1.98-.98s-1.77.31-2.66.94c-.89.63-1.72,1.42-2.5,2.36-.78.94-1.49,1.9-2.12,2.85.33-.96.59-1.87.8-2.75.21-.88.32-1.5.32-1.87,0-.61-.32-.91-.95-.91-.33,0-.64.08-.94.25-.3.16-.53.33-.67.49,0,.77-.13,1.62-.39,2.56-.12.43-.27.84-.4,1.26-.23.38-.49.72-.8.98-.46.37-.92.64-1.38.79-.47.15-.89.23-1.26.23-.47,0-.91-.12-1.33-.35.68-1.03,1.24-2.09,1.68-3.2.44-1.11.67-2.12.67-3.03,0-.77-.16-1.41-.49-1.92-.33-.51-.97-.77-1.92-.77-.72,0-1.34.21-1.85.61-.51.41-.91.95-1.17,1.63-.27.68-.4,1.4-.4,2.17,0,.91.18,1.8.54,2.68s.87,1.58,1.52,2.12c-.65.82-1.32,1.49-2,2.01s-1.26.79-1.75.79c-.37,0-.68-.16-.91-.47-.23-.32-.35-.82-.35-1.52,0-.44.09-.98.26-1.61s.39-1.27.65-1.91.53-1.21.82-1.72c.29-.5.54-.84.75-1.03-.12-.05-.24-.09-.37-.12-.13-.04-.25-.05-.37-.05-.49,0-.97.21-1.45.63-.48.42-.91.97-1.29,1.65s-.69,1.4-.93,2.17c0,0,0,.02,0,.03-.54.97-1.16,1.81-1.88,2.47-1.05.97-2.12,1.66-3.22,2.08.56-1.42,1.04-2.81,1.45-4.17s.72-2.54.95-3.55.33-1.71.33-2.08c-.14-.05-.27-.08-.39-.09-.12-.01-.23-.02-.35-.02-.58,0-1.01.22-1.28.65-.27.43-.44.81-.51,1.14-.05.28-.1.55-.16.82-.06.27-.12.53-.19.79-.47.77-.97,1.49-1.52,2.17-.55.68-1.1,1.23-1.65,1.66s-1.04.65-1.49.65c-.47,0-.79-.13-.98-.38-.19-.26-.28-.6-.28-1.02,0-.47.08-1.03.25-1.68.16-.65.37-1.32.61-2.01.25-.69.5-1.31.75-1.87.26-.56.49-.99.7-1.29,0-.14-.11-.27-.33-.4-.22-.13-.46-.23-.7-.3s-.42-.11-.51-.11c-.26,0-.56.27-.91.81-.35.54-.69,1.21-1.01,2.03-.33.82-.6,1.66-.82,2.52-.02.09-.03.17-.05.26-.53.94-1.14,1.82-1.85,2.61-.84.93-1.75,1.69-2.73,2.26-.98.57-1.97.86-2.98.86-.54,0-.99-.08-1.35-.25-.36-.16-.65-.39-.86-.68s-.36-.61-.44-.96c-.08-.35-.12-.7-.12-1.05,0-.19.01-.38.04-.59.02-.21.06-.43.1-.67,1-.09,2.01-.33,3.03-.72,1.01-.38,1.95-.88,2.8-1.49.85-.61,1.54-1.3,2.06-2.08.53-.78.79-1.62.79-2.5s-.23-1.44-.68-1.71c-.46-.28-.95-.42-1.49-.42-1.03,0-2.07.32-3.12.96-1.05.64-2.01,1.48-2.89,2.5s-1.58,2.12-2.1,3.29c-.31.7-.52,1.37-.65,2.03-.36.52-.79.98-1.29,1.35-.56.41-1.26.61-2.1.61-.16,0-.32-.01-.47-.03s-.3-.05-.44-.07c.4-.77.7-1.56.91-2.38s.32-1.61.32-2.38c0-1.05-.2-1.85-.6-2.4s-.93-.82-1.61-.82c-.79,0-1.48.34-2.07,1.02s-.88,1.58-.88,2.69c0,.86.21,1.72.63,2.57s1.06,1.5,1.92,1.94c-.44.86-1.03,1.57-1.75,2.12-.72.55-1.42.82-2.1.82s-1.2-.31-1.49-.93c-.29-.62-.44-1.41-.44-2.36s.11-1.99.33-3.03c.22-1.04.47-1.96.74-2.76.27-.8.47-1.34.61-1.59.82-.49,1.62-1.16,2.4-2.01.78-.85,1.51-1.79,2.19-2.82.68-1.03,1.27-2.07,1.79-3.13.51-1.06.91-2.06,1.19-2.99.28-.93.42-1.73.42-2.38,0-.49-.09-.98-.26-1.47s-.46-.74-.86-.74c-.47,0-1.06.4-1.79,1.21-.72.8-1.49,1.88-2.31,3.22-.82,1.34-1.63,2.84-2.43,4.5-.81,1.66-1.54,3.35-2.19,5.09-.65,1.74-1.18,3.4-1.58,4.99-.4,1.59-.59,2.96-.59,4.13,0,1.35.3,2.43.89,3.22.59.79,1.5,1.19,2.71,1.19s2.32-.38,3.24-1.14c.92-.76,1.7-1.67,2.33-2.75l.56.07c.19.02.37.04.56.04.89,0,1.78-.26,2.68-.79.24-.14.46-.32.68-.53,0,0,0,.02,0,.03,0,1.14.36,2.11,1.07,2.89.71.78,1.78,1.17,3.2,1.17,1.17,0,2.32-.29,3.45-.86,1.13-.57,2.18-1.37,3.15-2.4.54-.57,1.02-1.2,1.45-1.89,0,.14-.03.29-.03.42,0,.65.14,1.19.42,1.61.28.42.64.73,1.07.93.43.2.87.3,1.31.3.96,0,1.86-.44,2.71-1.31s1.65-1.92,2.4-3.13c-.3,1.28-.62,2.46-.96,3.52-.34,1.06-.67,2.02-1,2.89-.89.44-1.74.89-2.55,1.33-.82.44-1.54.91-2.17,1.4s-1.13,1.03-1.5,1.61c-.37.58-.56,1.25-.56,2,0,.61.22,1.07.67,1.38.44.32.96.47,1.54.47.82,0,1.62-.4,2.4-1.21.78-.81,1.53-1.86,2.24-3.17.71-1.31,1.37-2.71,1.98-4.2.86-.4,1.74-.89,2.62-1.49s1.69-1.31,2.4-2.13c.06-.07.11-.15.17-.22-.01.18-.04.37-.04.55,0,.89.21,1.64.63,2.26s1.13.93,2.13.93c.89,0,1.8-.35,2.75-1.05.95-.7,1.81-1.58,2.61-2.62.26.12.53.2.81.26.28.06.57.09.88.09.77,0,1.58-.23,2.43-.68.26-.14.5-.32.73-.52-.3.81-.57,1.51-.8,2.08-.24.61-.37.97-.37,1.08.19.26.45.45.79.58.34.13.69.19,1.07.19.47-.77,1-1.65,1.61-2.62.61-.98,1.26-1.93,1.96-2.85s1.42-1.68,2.17-2.28,1.48-.89,2.21-.89c.4,0,.73.12,1,.37.27.25.4.7.4,1.35,0,.54-.08,1.09-.25,1.66-.16.57-.33,1.13-.51,1.66-.17.54-.26,1.05-.26,1.54,0,.65.2,1.19.61,1.61.41.42,1.02.63,1.84.63.89,0,1.69-.26,2.42-.77.72-.51,1.39-1.21,2-2.1.02-.03.04-.06.06-.09,0,.13-.02.25-.02.37,0,.68.13,1.24.4,1.68.27.44.61.76,1.01.96.41.2.81.3,1.21.3.72,0,1.49-.28,2.29-.84s1.63-1.33,2.47-2.33,1.63-2.11,2.38-3.34c-.21.79-.37,1.52-.49,2.17-.12.65-.17,1.18-.17,1.58,0,.61.17,1.2.51,1.77.34.57.94.86,1.8.86.79,0,1.63-.27,2.5-.82.88-.55,1.7-1.29,2.47-2.24.77-.95,1.38-2.01,1.82-3.2l-.42-.31c-.49,1.07-1.06,2-1.71,2.76-.65.77-1.31,1.37-1.96,1.79s-1.22.63-1.71.63c-.4,0-.63-.16-.7-.49-.07-.33-.1-.82-.1-1.47,0-1.17.19-2.46.58-3.87.38-1.41.89-2.88,1.5-4.39s1.27-3.01,1.94-4.48c.68-1.47,1.32-2.83,1.94-4.08.62-1.25,1.12-2.32,1.5-3.22.39-.9.58-1.53.58-1.91,0-.23-.07-.43-.21-.58-.14-.15-.3-.23-.49-.23ZM765.6,268.3c.47-.84.99-1.61,1.58-2.31.58-.7,1.19-1.27,1.82-1.7s1.23-.65,1.79-.65c.3,0,.5.07.59.21.09.14.14.34.14.59,0,.75-.24,1.46-.72,2.13-.48.68-1.08,1.29-1.82,1.86-.73.56-1.5,1.04-2.29,1.45-.79.41-1.5.72-2.13.93.23-.84.58-1.68,1.05-2.52ZM754.29,260.33c.63-1.34,1.27-2.57,1.91-3.67.64-1.11,1.22-2,1.75-2.66.52-.67.88-1,1.07-1,.05,0,.08.02.1.05s.04.11.04.23c0,.35-.12.88-.35,1.58-.23.7-.56,1.48-.98,2.34s-.9,1.74-1.43,2.64c-.54.9-1.11,1.74-1.73,2.54-.62.79-1.25,1.45-1.91,1.96.4-1.33.91-2.67,1.54-4.01ZM757.41,271.04c-.14.59-.34,1.16-.59,1.7-.61-.4-1.04-.95-1.29-1.64-.26-.7-.38-1.37-.38-2,0-.72.13-1.32.4-1.8.27-.48.58-.72.93-.72.33,0,.6.23.82.7.22.47.33,1.11.33,1.92,0,.63-.07,1.24-.21,1.84ZM777.23,282.45c-.83.92-1.42,1.38-1.77,1.38s-.59-.13-.74-.38c-.14-.26-.21-.48-.21-.67,0-.77.25-1.45.74-2.03s1.14-1.13,1.96-1.63c.82-.5,1.7-1.01,2.66-1.52-.93,2.31-1.81,3.92-2.64,4.85ZM795.31,271.13c-.4-.47-.69-1.04-.89-1.73-.2-.69-.3-1.37-.3-2.05,0-1.03.25-1.88.74-2.56.49-.68.97-1.01,1.43-1.01.3,0,.55.16.75.47.2.31.3.81.3,1.49,0,.84-.19,1.73-.58,2.68-.38.94-.87,1.85-1.45,2.71ZM879.34,272.57c-.84.93-1.75,1.69-2.73,2.26-.98.57-1.97.86-2.98.86-.54,0-.99-.08-1.35-.25-.36-.16-.65-.39-.86-.68s-.36-.61-.44-.96c-.08-.35-.12-.7-.12-1.05,0-.19.01-.38.04-.59.02-.21.06-.43.1-.67,1-.09,2.01-.33,3.03-.72,1.01-.38,1.95-.88,2.8-1.49.85-.61,1.54-1.3,2.06-2.08.53-.78.79-1.62.79-2.5s-.23-1.44-.68-1.71c-.46-.28-.95-.42-1.49-.42-1.03,0-2.07.32-3.12.96-1.05.64-2.01,1.48-2.89,2.5s-1.58,2.12-2.1,3.29c-.3.68-.51,1.33-.64,1.97-.22.34-.43.67-.68.99-.65.85-1.31,1.54-1.98,2.05-.67.51-1.27.77-1.8.77-.3,0-.55-.1-.75-.31s-.3-.55-.3-1.02c0-.58.13-1.19.38-1.82.26-.63.51-1.28.75-1.96s.37-1.38.37-2.1c0-.51-.09-1.01-.26-1.49-.17-.48-.46-.88-.84-1.19-.39-.32-.91-.47-1.56-.47s-1.23.16-1.79.47c-.56.31-1.09.76-1.59,1.33-.5.57-.97,1.24-1.42,2-.44.76-.86,1.59-1.24,2.49-.38.9-.74,1.83-1.07,2.78-.02-.16-.04-.34-.05-.52-.01-.19-.02-.41-.02-.67,0-.63.05-1.35.14-2.15.09-.81.24-1.63.44-2.47s.44-1.6.72-2.28c.82-.49,1.62-1.16,2.42-2.01.79-.85,1.53-1.79,2.21-2.82.68-1.03,1.27-2.07,1.78-3.13.51-1.06.92-2.06,1.21-2.99.29-.93.44-1.73.44-2.38,0-.47-.09-.95-.26-1.45s-.47-.75-.89-.75c-.51,0-1.12.4-1.82,1.19-.7.79-1.45,1.85-2.24,3.18-.79,1.33-1.57,2.81-2.33,4.45-.76,1.63-1.44,3.3-2.05,5-.61,1.7-1.1,3.33-1.47,4.87-.06.26-.11.5-.16.74-.87,1.79-1.88,3.21-3.02,4.27-1.17,1.07-2.36,1.61-3.57,1.61-.7,0-1.2-.22-1.5-.65-.3-.43-.46-1.15-.46-2.15,0-1.24.19-2.51.56-3.81s.83-2.58,1.37-3.82h.53c.79,0,1.7-.04,2.71-.1,1.01-.07,2.16-.17,3.45-.32v-.63c-.86.09-1.72.15-2.57.17-.85.02-1.66.04-2.43.04h-1.29c.68-1.45,1.38-2.79,2.1-4.03.72-1.24,1.33-2.3,1.82-3.2.49-.9.74-1.54.74-1.94,0-.26-.08-.45-.23-.58-.15-.13-.32-.19-.51-.19-.35,0-.78.27-1.28.82s-1.03,1.28-1.58,2.21-1.1,1.97-1.66,3.15c-.56,1.18-1.08,2.4-1.58,3.66-.33-.02-.62-.05-.88-.07s-.48-.05-.67-.07v.63c.19.07.38.12.59.16.21.03.43.08.67.12-.58,1.59-1.07,3.13-1.45,4.64s-.58,2.77-.58,3.8c0,1.14.27,2.01.8,2.59.54.58,1.31.88,2.31.88,1.1,0,2.16-.3,3.19-.91,1.03-.61,1.96-1.44,2.82-2.49.48-.6.91-1.25,1.3-1.93-.06.5-.09.97-.09,1.4,0,.93.13,1.77.38,2.52s.61,1.12,1.05,1.12c.33,0,.64-.23.95-.7.3-.47.61-1.07.91-1.8.3-.73.62-1.51.96-2.33.34-.82.7-1.59,1.08-2.33.38-.74.81-1.34,1.28-1.8.47-.47.99-.7,1.58-.7.37,0,.69.13.94.38.26.26.39.69.39,1.29,0,.56-.09,1.16-.26,1.79s-.36,1.25-.54,1.86-.28,1.15-.28,1.64c0,.63.2,1.16.61,1.58.41.42,1.01.63,1.8.63.91,0,1.79-.27,2.62-.8.84-.54,1.61-1.27,2.31-2.19.07-.09.12-.19.18-.28.02,1.1.37,2.04,1.06,2.79.71.78,1.78,1.17,3.2,1.17,1.17,0,2.32-.29,3.45-.86,1.13-.57,2.18-1.37,3.15-2.4.97-1.03,1.77-2.24,2.4-3.64l-.42-.31c-.58,1.12-1.3,2.15-2.14,3.08ZM872.24,268.3c.47-.84.99-1.61,1.58-2.31.58-.7,1.19-1.27,1.82-1.7s1.23-.65,1.79-.65c.3,0,.5.07.59.21.09.14.14.34.14.59,0,.75-.24,1.46-.72,2.13-.48.68-1.08,1.29-1.82,1.86-.73.56-1.5,1.04-2.29,1.45-.79.41-1.5.72-2.13.93.23-.84.58-1.68,1.05-2.52ZM858.31,260.17c.63-1.35,1.27-2.57,1.92-3.64s1.23-1.93,1.73-2.57c.5-.64.83-.96,1-.96.05,0,.08.02.11.05.02.04.03.11.03.23,0,.35-.12.88-.35,1.58s-.56,1.48-.98,2.34c-.42.86-.9,1.74-1.43,2.64-.54.9-1.11,1.74-1.73,2.54-.62.79-1.25,1.45-1.91,1.96.44-1.42.98-2.81,1.61-4.17ZM932.12,269.87l-.35-.35c-.23.51-.54,1.07-.93,1.68-.38.61-.8,1.18-1.26,1.73-.46.55-.92,1-1.4,1.35s-.93.53-1.35.53-.75-.17-.98-.51c-.23-.34-.4-.79-.51-1.35-.1-.56-.18-1.19-.23-1.89s-.1-1.4-.17-2.1c.79-.91,1.55-1.75,2.28-2.52.72-.77,1.36-1.38,1.92-1.84.56-.46.97-.68,1.22-.68,0-.12-.12-.21-.35-.28-.23-.07-.41-.11-.53-.11-.3,0-.9.39-1.79,1.17-.89.78-1.88,1.74-2.97,2.89-.16-.93-.46-1.72-.89-2.36-.43-.64-1.1-.96-2.01-.96-.75,0-1.37.18-1.87.54-.5.36-.93.83-1.28,1.42-.35.58-.67,1.21-.96,1.89s-.6,1.33-.93,1.96l.02.03c-.23.38-.49.73-.8.98-.46.37-.92.64-1.38.79-.47.15-.89.23-1.26.23-.47,0-.91-.12-1.33-.35.68-1.03,1.24-2.09,1.68-3.2.44-1.11.67-2.12.67-3.03,0-.77-.16-1.41-.49-1.92-.33-.51-.97-.77-1.92-.77-.72,0-1.34.21-1.85.61-.51.41-.91.95-1.17,1.63-.27.68-.4,1.4-.4,2.17,0,.91.18,1.8.54,2.68s.87,1.58,1.52,2.12c-.65.82-1.32,1.49-2,2.01s-1.26.79-1.75.79c-.37,0-.68-.16-.91-.47-.23-.32-.35-.82-.35-1.52,0-.44.09-.98.26-1.61s.39-1.27.65-1.91.53-1.21.82-1.72c.29-.5.54-.84.75-1.03-.12-.05-.24-.09-.37-.12-.13-.04-.25-.05-.37-.05-.49,0-.97.21-1.45.63-.48.42-.91.97-1.29,1.65-.37.65-.66,1.33-.89,2.06-.09.15-.17.29-.27.44-.38.59-.86,1.1-1.42,1.5-.56.41-1.26.61-2.1.61-.16,0-.32-.01-.47-.03s-.3-.05-.44-.07c.4-.77.7-1.56.91-2.38s.32-1.61.32-2.38c0-1.05-.2-1.85-.6-2.4s-.93-.82-1.61-.82c-.79,0-1.48.34-2.07,1.02s-.88,1.58-.88,2.69c0,.86.21,1.72.63,2.57s1.06,1.5,1.92,1.94c-.44.86-1.03,1.57-1.75,2.12-.72.55-1.42.82-2.1.82s-1.2-.31-1.49-.93c-.29-.62-.44-1.41-.44-2.36s.11-1.99.33-3.03c.22-1.04.47-1.96.74-2.76.27-.8.47-1.34.61-1.59.82-.49,1.62-1.16,2.4-2.01.78-.85,1.51-1.79,2.19-2.82.68-1.03,1.27-2.07,1.79-3.13.51-1.06.91-2.06,1.19-2.99.28-.93.42-1.73.42-2.38,0-.49-.09-.98-.26-1.47s-.46-.74-.86-.74c-.47,0-1.06.4-1.79,1.21-.72.8-1.49,1.88-2.31,3.22-.82,1.34-1.63,2.84-2.43,4.5-.81,1.66-1.54,3.35-2.19,5.09-.65,1.74-1.18,3.4-1.58,4.99-.4,1.59-.59,2.96-.59,4.13,0,1.35.3,2.43.89,3.22.59.79,1.5,1.19,2.71,1.19s2.32-.38,3.24-1.14c.92-.76,1.7-1.67,2.33-2.75l.56.07c.19.02.37.04.56.04.89,0,1.78-.26,2.68-.79.31-.18.6-.45.88-.76-.02.24-.06.47-.06.71,0,.89.21,1.64.63,2.26s1.13.93,2.13.93c.89,0,1.8-.35,2.75-1.05.95-.7,1.81-1.58,2.61-2.62.26.12.53.2.81.26.28.06.57.09.88.09.77,0,1.58-.23,2.43-.68.85-.46,1.51-1.23,1.98-2.33h-.02c.34-.61.66-1.19.96-1.73.42-.76.85-1.38,1.29-1.86.44-.48.94-.72,1.5-.72s.9.4,1.08,1.21c.19.8.34,1.76.46,2.85-.91,1-1.76,2-2.54,2.97-.78.98-1.42,1.83-1.91,2.54-.49.71-.73,1.21-.73,1.49,0,.16.03.29.1.38.07.09.15.14.25.14.14,0,.28-.08.42-.25.42-.54,1.04-1.33,1.87-2.38.83-1.05,1.73-2.16,2.71-3.33.12.82.27,1.59.47,2.33s.5,1.33.89,1.79c.4.46.93.68,1.61.68.82,0,1.63-.31,2.45-.93s1.56-1.4,2.22-2.34c.67-.95,1.16-1.92,1.49-2.92ZM895.48,260.33c.63-1.34,1.27-2.57,1.91-3.67.64-1.11,1.22-2,1.75-2.66.52-.67.88-1,1.07-1,.05,0,.08.02.1.05s.04.11.04.23c0,.35-.12.88-.35,1.58-.23.7-.56,1.48-.98,2.34s-.9,1.74-1.43,2.64c-.54.9-1.11,1.74-1.73,2.54-.62.79-1.25,1.45-1.91,1.96.4-1.33.91-2.67,1.54-4.01ZM898.59,271.04c-.14.59-.34,1.16-.59,1.7-.61-.4-1.04-.95-1.29-1.64-.26-.7-.38-1.37-.38-2,0-.72.13-1.32.4-1.8.27-.48.58-.72.93-.72.33,0,.6.23.82.7.22.47.33,1.11.33,1.92,0,.63-.07,1.24-.21,1.84ZM911.23,271.13c-.4-.47-.69-1.04-.89-1.73-.2-.69-.3-1.37-.3-2.05,0-1.03.25-1.88.74-2.56.49-.68.97-1.01,1.43-1.01.3,0,.55.16.75.47.2.31.3.81.3,1.49,0,.84-.19,1.73-.58,2.68-.38.94-.87,1.85-1.45,2.71ZM942.76,250.76c0,.33-.17.93-.51,1.8-.34.88-.79,1.94-1.37,3.19-.57,1.25-1.21,2.58-1.92,4.01-.71,1.42-1.45,2.87-2.22,4.32-.77,1.46-1.52,2.83-2.26,4.13-.73,1.29-1.41,2.42-2.01,3.38-.02-.02-.04-.04-.05-.05l-.05-.05c.23-1.05.47-2.01.72-2.87s.48-1.6.72-2.22c.23-.62.41-1.09.52-1.42.4-.98.84-2.12,1.33-3.41s1.01-2.62,1.58-3.97c.56-1.35,1.12-2.61,1.7-3.76.57-1.16,1.13-2.09,1.66-2.8.54-.71,1.03-1.07,1.47-1.07.19,0,.35.08.49.23.14.15.21.34.21.58ZM933.03,273.3c.16.12.25.34.25.67,0,.35-.19.7-.56,1.03s-.79.51-1.26.51c-.3,0-.57-.08-.79-.23-.22-.15-.33-.39-.33-.72,0-.4.23-.74.68-1.02.46-.28.9-.42,1.35-.42.28,0,.5.06.67.17ZM217.38,158.07h-6.81l-1.12-14.04c-.08-1-.92-1.77-1.92-1.77h-.02c-2.6.02-5.14.08-7.67.17l-.65-9.05c-.07-.96-.83-1.72-1.79-1.79-40.89-2.83-67.78,5.35-82.81,25.13-15.03-19.78-41.93-27.97-82.81-25.13-.96.07-1.72.83-1.79,1.79l-.65,9.05c-2.52-.08-5.07-.15-7.67-.17h-.02c-1,0-1.84.77-1.92,1.77l-1.12,14.04h-6.81c-1,0-1.83.76-1.92,1.76L0,272.65c-.05.54.13,1.07.5,1.47.37.4.88.62,1.42.62h98.59c1.31,4.38,7.02,7.59,14.07,7.59s12.76-3.21,14.07-7.59h98.59c.54,0,1.06-.23,1.42-.62.36-.4.54-.93.5-1.47l-9.86-112.81c-.09-1-.92-1.76-1.92-1.76ZM116.51,160.6c13.74-19.52,39.28-27.75,78.95-25.28l.66,9.21s0,.01,0,.02l7,97.25c-1.19-.02-2.37-.03-3.53-.03-1.95,0-3.89.04-5.8.1-.11,0-.21,0-.32,0-1.84.07-3.66.16-5.47.29-.17.01-.35.02-.53.03-1.75.13-3.49.29-5.21.47-.22.02-.44.04-.66.07-1.68.19-3.35.4-5,.64-.25.04-.49.07-.74.11-1.63.25-3.24.52-4.83.82-.26.05-.52.1-.78.15-1.58.31-3.15.64-4.71.99-.26.06-.51.12-.77.18-1.55.37-3.09.76-4.61,1.18-.25.07-.49.14-.74.21-1.53.43-3.04.89-4.54,1.37-.22.07-.45.15-.67.22-1.52.5-3.02,1.02-4.51,1.58-.19.07-.38.14-.57.22-1.52.57-3.02,1.17-4.52,1.8-.14.06-.28.12-.42.18-1.53.66-3.06,1.34-4.56,2.06-.07.03-.14.07-.21.1-1.51.73-3.01,1.49-4.5,2.28-.07.04-.14.07-.2.11-1.48.79-2.93,1.61-4.38,2.46-.13.08-.26.15-.39.23-1.4.83-2.78,1.69-4.16,2.58-.17.11-.34.22-.51.33-1.34.88-2.67,1.79-3.98,2.72-.19.14-.39.27-.58.41-1.3.93-2.58,1.89-3.85,2.87-.11.09-.23.17-.34.25v-108.19ZM33.05,144.55s0,0,0,0l.66-9.22c39.66-2.47,65.2,5.76,78.95,25.28v108.19c-.11-.08-.22-.16-.33-.24-1.28-.99-2.57-1.96-3.88-2.89-.18-.13-.37-.26-.56-.39-1.32-.94-2.66-1.85-4.01-2.73-.16-.11-.33-.21-.49-.31-1.38-.89-2.77-1.76-4.18-2.59-.12-.07-.25-.14-.37-.22-1.45-.85-2.92-1.68-4.4-2.47-.06-.03-.12-.06-.18-.09-1.49-.8-3-1.56-4.53-2.29-.07-.03-.13-.06-.19-.1-1.51-.72-3.04-1.41-4.57-2.07-.14-.06-.27-.12-.41-.18-1.49-.63-3-1.23-4.53-1.81-.19-.07-.37-.14-.56-.21-1.49-.56-3-1.08-4.52-1.58-.22-.07-.44-.15-.66-.22-1.5-.48-3.02-.94-4.55-1.37-.25-.07-.49-.14-.74-.21-1.52-.42-3.06-.81-4.61-1.18-.26-.06-.51-.12-.77-.18-1.56-.36-3.13-.69-4.71-1-.26-.05-.52-.1-.77-.15-1.6-.3-3.21-.57-4.84-.82-.25-.04-.49-.07-.74-.11-1.65-.24-3.32-.46-5-.64-.22-.02-.44-.05-.66-.07-1.72-.18-3.46-.34-5.21-.47-.17-.01-.35-.02-.53-.03-1.81-.12-3.63-.22-5.47-.29-.11,0-.21,0-.32,0-1.92-.06-3.85-.1-5.8-.1-1.17,0-2.34.01-3.53.03l7-97.25ZM102.16,270.89H4.03l9.52-108.96h4.74l-7.48,93.4c-.04.54.14,1.07.5,1.46.36.39.88.62,1.41.62,2.11,0,4.21.04,6.29.08.74.02,1.47.04,2.2.06,1.35.04,2.69.08,4.03.13.86.03,1.72.08,2.58.12,1.2.06,2.41.12,3.6.19.9.05,1.79.11,2.69.17,1.15.08,2.3.16,3.45.25.91.07,1.81.15,2.71.22,1.14.1,2.27.21,3.4.32.89.09,1.79.18,2.68.27,1.15.12,2.3.26,3.45.4.85.1,1.71.2,2.56.31,1.26.16,2.51.34,3.76.51.73.1,1.47.2,2.2.31,1.94.29,3.88.6,5.81.92.55.09,1.09.2,1.64.29,1.42.25,2.84.5,4.26.77.8.15,1.59.32,2.38.48,1.17.23,2.34.47,3.5.71.85.18,1.71.37,2.56.56,1.11.25,2.21.49,3.32.75.87.2,1.75.42,2.62.63,1.09.27,2.18.54,3.27.82.87.22,1.75.45,2.62.68,1.1.29,2.2.59,3.3.9.86.24,1.71.47,2.57.72,1.15.33,2.29.67,3.44,1.01.81.24,1.62.48,2.43.73.16.05.32.1.48.15h-.4ZM103.3,267.08c-.69-.21-1.38-.42-2.07-.62-1.26-.38-2.53-.76-3.79-1.12-.73-.21-1.47-.42-2.2-.62-1.22-.34-2.45-.68-3.67-1-.75-.2-1.49-.39-2.24-.59-1.22-.32-2.45-.62-3.68-.92-.73-.18-1.46-.36-2.19-.53-1.27-.3-2.54-.59-3.82-.87-.68-.15-1.36-.31-2.05-.46-1.42-.31-2.85-.6-4.27-.88-.53-.11-1.06-.22-1.58-.32-3.93-.76-7.87-1.45-11.83-2.05-.58-.09-1.17-.17-1.75-.25-1.39-.2-2.78-.4-4.17-.59-.73-.1-1.47-.18-2.2-.28-1.25-.16-2.51-.31-3.77-.45-.79-.09-1.58-.17-2.37-.25-1.22-.13-2.43-.25-3.66-.36-.82-.07-1.63-.15-2.45-.22-1.22-.1-2.44-.2-3.66-.28-.82-.06-1.64-.12-2.46-.17-1.26-.08-2.52-.15-3.79-.22-.79-.04-1.57-.09-2.36-.12-1.39-.06-2.79-.11-4.19-.16-.67-.02-1.33-.05-2-.07-2.07-.06-4.15-.1-6.25-.11l7.48-93.41s0-.01,0-.02l1.12-14.01c1.9.03,3.77.07,5.63.14l-7,97.38c-.04.54.15,1.08.53,1.47.38.39.9.62,1.45.6,1.87-.06,3.73-.08,5.55-.08,1.64,0,3.27.03,4.88.08.24,0,.48.01.72.02,1.53.05,3.06.12,4.57.22.29.02.57.04.86.06,1.51.1,3.01.22,4.49.36.22.02.44.05.66.07,1.51.15,3.02.32,4.51.52.05,0,.1.01.16.02,1.51.2,2.99.43,4.48.68.24.04.48.08.72.12,1.42.25,2.82.51,4.22.8.27.06.53.11.8.17,1.4.3,2.79.61,4.17.96.19.05.37.1.56.14,1.38.35,2.75.72,4.11,1.11.09.03.18.05.27.08,1.38.4,2.75.83,4.11,1.28.23.08.46.15.69.23,1.31.44,2.62.91,3.91,1.39.24.09.48.18.72.28,1.31.5,2.61,1.02,3.89,1.56.15.07.31.13.46.2,1.28.55,2.54,1.11,3.8,1.71.1.05.21.09.31.14,1.28.61,2.54,1.24,3.8,1.9.21.11.43.22.64.33,1.22.64,2.43,1.31,3.64,2,.21.12.42.24.63.37,1.23.71,2.45,1.44,3.65,2.2.11.07.21.14.32.2,1.2.76,2.4,1.55,3.58,2.36.07.05.14.09.21.14-.27-.08-.54-.16-.81-.25ZM114.58,278.48c-4.71,0-8.33-1.73-9.79-3.74h9.77s.01,0,.02,0,.01,0,.02,0h9.77c-1.46,2.01-5.09,3.74-9.79,3.74ZM125.69,267.13c-.21.06-.42.12-.63.19.07-.05.15-.1.22-.15,1.18-.8,2.36-1.58,3.56-2.34.11-.07.22-.14.33-.21,1.2-.76,2.42-1.48,3.64-2.2.21-.12.43-.25.64-.37,1.2-.69,2.41-1.35,3.63-1.99.22-.11.44-.23.65-.34,1.25-.65,2.51-1.28,3.79-1.89.11-.05.22-.1.33-.15,1.25-.59,2.5-1.15,3.77-1.7.16-.07.32-.14.48-.21,1.28-.54,2.57-1.06,3.88-1.56.25-.09.49-.19.74-.28,1.29-.48,2.58-.95,3.89-1.39.24-.08.47-.16.71-.23,1.35-.45,2.72-.88,4.1-1.28.1-.03.19-.05.29-.08,1.35-.39,2.71-.75,4.08-1.1.19-.05.39-.1.58-.15,1.37-.34,2.76-.66,4.16-.95.27-.06.54-.12.82-.17,1.39-.29,2.79-.55,4.2-.8.24-.04.49-.08.73-.12,1.48-.25,2.96-.48,4.46-.68.06,0,.11-.01.17-.02,1.48-.2,2.98-.37,4.49-.52.22-.02.44-.05.66-.07,1.48-.14,2.98-.26,4.49-.36.29-.02.57-.04.86-.06,1.51-.09,3.03-.17,4.56-.22.24,0,.48-.01.72-.02,1.61-.05,3.24-.08,4.88-.08,1.82,0,3.68.03,5.55.08h.09c.06,0,.12-.01.18-.02.06,0,.11,0,.17-.02.94-.15,1.61-.94,1.61-1.9,0-.21-.03-.4-.09-.59l-6.97-96.93c1.86-.06,3.73-.11,5.63-.14l8.61,107.43c-2.1.02-4.18.06-6.25.11-.69.02-1.37.05-2.06.07-1.38.05-2.76.09-4.13.15-.81.04-1.62.08-2.43.13-1.24.07-2.48.13-3.71.21-.85.05-1.69.12-2.53.18-1.2.09-2.39.18-3.58.28-.85.07-1.69.14-2.54.22-1.19.11-2.37.23-3.56.35-.83.09-1.66.17-2.49.26-1.22.14-2.43.28-3.64.43-.78.1-1.56.19-2.34.29-1.33.18-2.66.37-3.99.56-.64.09-1.29.18-1.94.28-1.96.3-3.92.62-5.87.96-.22.04-.44.08-.66.12-1.74.31-3.47.62-5.21.96-.68.13-1.37.28-2.05.42-1.27.26-2.53.51-3.8.79-.78.17-1.57.35-2.35.52-1.17.26-2.33.53-3.5.8-.82.19-1.64.39-2.45.59-1.13.28-2.27.56-3.4.86-.83.21-1.65.43-2.48.65-1.14.3-2.27.61-3.41.93-.82.23-1.63.46-2.45.69-1.17.34-2.34.69-3.51,1.04-.78.23-1.56.46-2.33.7ZM127.01,270.89h-.4c.16-.05.32-.1.48-.15.81-.25,1.62-.49,2.43-.73,1.15-.34,2.29-.68,3.44-1.01.86-.25,1.72-.48,2.58-.72,1.1-.3,2.2-.61,3.29-.9.88-.23,1.75-.46,2.63-.68,1.09-.28,2.17-.55,3.26-.81.88-.21,1.76-.43,2.63-.63,1.1-.26,2.2-.51,3.31-.75.86-.19,1.72-.38,2.57-.57,1.16-.25,2.32-.48,3.49-.71.8-.16,1.6-.33,2.4-.48,1.4-.27,2.81-.52,4.21-.76.56-.1,1.12-.21,1.69-.3,1.93-.33,3.87-.63,5.81-.92.74-.11,1.49-.21,2.23-.31,1.24-.18,2.48-.35,3.73-.51.86-.11,1.72-.21,2.58-.31,1.14-.14,2.29-.27,3.43-.39.9-.1,1.79-.18,2.69-.27,1.13-.11,2.26-.22,3.39-.32.91-.08,1.81-.15,2.72-.23,1.14-.09,2.29-.17,3.44-.25.9-.06,1.8-.12,2.7-.17,1.19-.07,2.39-.13,3.6-.19.86-.04,1.72-.09,2.58-.12,1.33-.05,2.68-.09,4.02-.13.74-.02,1.47-.05,2.2-.06,2.09-.04,4.18-.07,6.29-.08.54,0,1.05-.23,1.41-.62.36-.4.54-.92.5-1.46l-7.48-93.4h4.74l9.52,108.96h-98.13ZM63.95,75.04l-23.86-9.05,24.63-6.7,1.24-25.49,13.98,21.35,24.63-6.7-15.98,19.9,13.98,21.35-23.86-9.05-15.98,19.9,1.24-25.49ZM194.14,27.12l-14.45-6.41,15-4.99,1.63-15.72,9.38,12.73,15.46-3.3-9.21,12.85,7.92,13.68-15.07-4.78-10.56,11.76-.11-15.81ZM138.62,93.58l15-4.99,1.63-15.72,9.38,12.73,15.46-3.3-9.21,12.85,7.92,13.68-15.07-4.78-10.56,11.76-.11-15.81-14.45-6.41ZM250.67,78.69c0,5.8-4.7,10.5-10.5,10.5s-10.5-4.7-10.5-10.5,4.7-10.5,10.5-10.5,10.5,4.7,10.5,10.5ZM130.17,47.69c0-4.97,4.03-9,9-9s9,4.03,9,9-4.03,9-9,9-9-4.03-9-9Z" style="fill: url(#linear-gradient); stroke-width: 0px;"/>
</svg>